<svg xmlns="http://www.w3.org/2000/svg" width="100%" height="100%" viewBox="0 0 1366 1279" fill-rule="nonzero" stroke-linejoin="round" stroke-miterlimit="2">

<path d="M442.1 6.2c-.6 3.5-1.5 9.7-2.1 13.8-.5 4.1-1.9 13.6-3 21l-3.1 21.5c-1.4 9.9-2.4 12.1-3.4 7.4-.4-1.9-2.2-9.7-4.1-17.4l-4-18.3c-.4-2.3-1.1-4.2-1.6-4.2s-3.6 1.9-6.9 4.2c-4.9 3.5-5.7 4.4-4 4.6 2.4.4 2.4.6 7.5 23.2l7.5 32.8c2.3 9.5 4.1 17.9 4.1 18.7 0 .9-.9 1.5-2.3 1.5-1.9 0-3.1-1.7-7.2-10.1-2.8-5.5-5.3-10.3-5.7-10.5-1.1-.7.1 7.9 2.4 17.1 2.8 11.3 6.9 18.5 15.2 26.3 18.9 17.9 20.7 20.8 46 74.3 3.1 6.7 3.2 7.6.7 8.4-1.4.4-5.7-2-15.5-9-7.5-5.2-14.2-9.5-15-9.5-1.6 0-3.2 3.3-1.7 3.8 2.8.9 30.4 24.1 58.9 49.6 13.1 11.7 19.1 19.4 23.6 30.6 3.6 8.8 13.3 43.3 14.7 52.2 1.8 11.7-.1 24.8-5.6 37.9-1.5 3.5-8.1 19.9-14.7 36.4-12.4 31.1-20.1 47.4-29.2 62.3l-8.1 13.7c-3.3 5.7-2.5 6.8-8.4-11.5-2.2-6.9-5.2-15.7-6.6-19.5-6.5-17.3-12.5-34.6-14.4-41.5-6.8-25.1-6.7-49.5.4-68.3 3.1-8.2 3.1-8.7.3-8.7-1.9 0-3.2 1.8-7.3 9.8-3.8 7.4-5.5 9.8-7.2 10l-2.3.3v-44.5c0-27.7-.4-44.6-1-44.6-.5 0-1.1 1.5-1.4 3.2l-7.5 43.8-2.9 16.5 3.9 10.7L439 366c2.2 6 4 11.2 4 11.5s-1 .5-2.3.5c-1.6 0-3.5-1.6-6.2-5.3-7.8-10.4-8.1-10.7-9.9-9.4-1.3 1.1-1.4 1.6-.2 4.2l12.9 29 13.4 30.4c1.3 2.9 2.2 5.6 1.9 5.8-.8.8-7.9-5.2-13.5-11.3-18.2-19.9-23.1-37.3-25.2-89.9l-1.5-26.4c-.2-.2-.4 19.7-.4 44.2 0 24.6-.4 44.7-.8 44.7-1.9 0-9.1-6-11.1-9.4-2.2-3.6-2.3-4-2.1-40.7 0-20.4.5-40.7 1.1-45.2 2.7-22.1 10.6-38.9 24.5-51.5 3.8-3.5 7.2-7.5 7.6-8.9.6-2.2-4.8-30.6-8.3-43.7l-1.1-3.9-2.7 4.9c-1.6 2.7-5.8 10.5-9.4 17.4s-7 12.4-7.4 12.4c-.4-.1-2.7-4-5-8.7-7.1-14.3-8.3-22.8-8.3-58.7 0-16.6.4-37.7 1-46.8l4-75.6c0-.9-.8-1.6-2-1.6-1.9 0-2 .7-2 13.1 0 12.1-.1 13.1-1.7 12.4-5.3-2.2-5.4-2.1-4.8 3.1 1 8.8 3.5 35 3.5 36.7 0 1-.8 1.7-1.9 1.7-1.4 0-2.7-1.6-4.5-5.3l-2.4-5.2-.1 54.3c-.1 51.4-.2 54.2-1.8 53.1-3.1-1.9-8.2-9.4-10.8-15.6-1.4-3.4-3.1-11-4-17.4l-3.5-26.4c-3-21.6-2.9-21.5-5.1-21.5-1.1 0-2.2.7-2.5 1.5s.4 8.4 1.6 17 2 16 1.8 16.5c-.2.6-3.7-4-7.8-10.1l-7.5-11.1-1.2 6.3c-1.8 9.4-1.7 10.2 2.5 16.6 12.1 18.2 21.2 32.4 23.6 36.8 1.5 2.7 6.1 9.7 10.2 15.5 8.4 11.6 16.5 27.2 19 36.5 2.1 8.3 2.9 24.4 1.5 33.5-1.4 9-5.1 22-6.2 22-.7 0-31.2-26.9-45.1-39.8-2.7-2.5-2.8-2.5-4.8-.7-1.1 1-2 2.1-2 2.4s4.7 4.4 10.4 9.1c5.8 4.7 10.5 9 10.5 9.6.1.6-1.9 1.7-4.4 2.4-2.6.7-4.5 1.9-4.5 2.6 0 2.7 4.1 10.1 7.1 13 3.8 3.6 9.5 3.8 15.2.4 3.7-2.2 3.8-2.2 5.9-.4 4.1 3.7 10.6 15 12.8 22.4 3 10 3.5 19.5 2 36.7-1.9 21.6-4.1 21.9-14.4 1.9-6.5-12.7-7.1-13.6-7.4-10.5-.2 1.9.1 6.4.8 10.1 1 5.5 2.1 8 6.1 13.5 7.7 10.6 8.1 14.5 3.3 28.3-7.4 21.4-8.1 49.8-1.9 78 1.9 8.8 4.8 28.6 4.3 30-.4 1.4-10.7-5.6-16.6-11.3-8.4-8.2-12.1-15.8-14.6-30.2s-8-22.3-17.4-25c-13.8-4-24.3-12.6-27.5-22.5-2.1-6.6-2.2-19.8-.2-30.3 1-5 1.5-13.9 1.5-24.5 0-22.6 1.3-28.6 8.6-39.8l1.9-2.9-3.4 2.5c-7.9 5.9-7.1 6.9-7.1-8.1 0-7.4-.3-14.3-.6-15.4s-2.7-3.4-5.2-5c-7.2-4.6-8.5-7.8-9.2-21.9-.6-11.7-3.7-24.5-14.9-63.6-.4-1.4-1.5-2.7-2.5-2.8-1.5-.3-1.7.1-1.2 2.5L277 228l5.6 29.8c1.4 7.4 2.4 13.6 2.1 13.8-.2.3-6.6-7.2-14.2-16.6-7.5-9.3-14.3-17-14.9-17-2 0-3.6 2.1-2.5 3.4 3.2 3.8 14.5 19.5 19.9 27.6l8 12.1c3.5 5 9.8 18.5 12.3 26.4 3.2 9.7 4.7 18.7 4.7 28 0 6.9-1.6 20.4-2.5 21.3-.2.3-2.3-1.2-4.5-3.2s-6.6-4.8-9.8-6.2c-3.1-1.4-6.8-3.5-8.1-4.7-5.7-5.3-6.5-14.3-2.6-29.5 2.5-9.9 5.5-25.2 5.5-28.5 0-3.2-4.3-1.7-5.2 1.8-1.8 7.4-7.1 24.1-7.9 24.9-.5.6-3.5-4.6-7.2-12.5l-30.1-62.3c-5.3-10.9-9.6-20.2-9.6-20.7s-.7-.9-1.5-.9c-1.9 0-1.8.5 4.1 19.7 2.4 7.8 4.4 14.7 4.4 15.3 0 .8-1 .9-3 .5-4-.9-3.8-.3 1 2.9 8.3 5.5 15.5 14.7 19.9 25.4 3.1 7.4 6.9 23.1 10.1 41.7 4.5 25.9 10.8 36.3 28.1 46.5 5.6 3.3 11.5 10.9 13.4 17.2.9 3.1 1.5 9.1 1.5 15.1v9.9l-3.2-.6c-1.8-.3-8.2-4-14.4-8.2-12.6-8.5-18.6-10.8-25.6-9.9-2.7.4-4.8 1.1-4.8 1.6s4.6 3.2 10.3 6c15.4 7.7 23.5 12.8 29.9 18.7 5.8 5.4 12.1 14.5 13.3 19.3.6 2.4.3 2.7-6.2 5.1l-6.8 2.5 13.5.6c23.4 1 33.8 5.1 39.3 15.7 2.8 5.2 2.9 6 2.5 15.6-.3 5.5-.8 10.6-1.3 11.4-.6 1-2.9 1.1-9.7.7-7-.5-10.3-1.2-15.1-3.5-6.9-3.2-20-12.4-35.1-24.4-5.4-4.4-10-7.7-10.3-7.4-.9.9 7.6 13.7 13.6 20.5 3.1 3.6 10.4 10.5 16.4 15.4 5.9 4.9 10.7 9.3 10.7 9.7 0 2-2.1 1.8-8.4-.7-3.6-1.4-6.8-2.4-7.2-2.1-1 1 3.8 9.9 6.2 11.5 2.4 1.5 5.1 1.3 20.4-1.8 21.1-4.3 46.3 6.7 58.7 25.5 7.7 11.6 9.3 20.1 10 54.1.7 37.6-.7 46.2-15.1 89.5-3 9.1-6.7 21-8.2 26.5s-4.2 14.5-6 20.1c-20.4 61.7-17.4 123.2 10 207.9 4.2 12.9 5.9 33.4 5.2 61-.5 16-.3 26.8.6 35 1.9 17.6 1.7 23.4-1 27.7-4.1 6.6-12.6 10.9-33.7 16.7-21 5.8-25.4 6.2-62.5 5.5-38-.7-49.7.1-61.1 4.2-7.2 2.6-11 4.5-38.3 18.9-7.1 3.8-15.4 7.4-18.5 8.2-3.4.8-12.1 1.3-22.6 1.3-47.8.1-80.2 3.7-105 11.7-12.8 4.1-35.4 15.3-33.4 16.5.2.2 1.6 1.3 3 2.6l2.6 2.2 17.4-4.4c20.4-5.3 48-10.7 69.9-13.6 29.8-4.1 50.7-5.3 46.3-2.7-.4.2-12.3 4.1-26.3 8.7l-41 13.5c0 .1.7 1.9 1.5 3.9 1.3 3 1.9 3.5 3.8 3.1 1.2-.3 8-1.9 15-3.5l13.3-3c.3 0-2.3 3.6-5.6 8.1-10 13-5.7 14.1 7.8 1.9 11.6-10.5 23.2-16 42.2-20.3 6.4-1.5 10.5-3.2 35.5-15.2 20.2-9.7 33.4-15.3 38.8-16.6 6.9-1.5 47.1-.9 48.8.8 1.2 1.2.7 1.5-16.9 14.6l-12 9c-2.5 1.8-9.6 4.4-22.2 8.1-28.8 8.5-45.5 14.3-57.9 20.2-6.2 3-11.6 5.4-12 5.4-.3 0-1.7.9-3 1.9l-2.4 1.9 2.9.6c2.2.5 7.6-.9 20.9-5.4 32.4-11.1 50.7-16.2 52.2-14.6.4.4-2.3 3.7-6 7.4s-6.7 7.3-6.7 8c0 2.1 4.8 4.5 7.8 3.9 1.5-.3 6.6-3.1 11.1-6.2 12.3-8.3 11.5-8.7 10.6 4.8-.7 11.3-.6 11.7 1.3 11.7 2.7 0 5-4.2 9.4-17 7.4-21.4 11.6-26 37.8-41.6l11.5-6.8 18-.8c20.7-.8 27.9-1.9 38.9-5.9 12.9-4.7 20.9-3.4 23.7 3.9 1.5 4-1.2 6.9-11.6 11.8-16.8 7.9-30.2 18.6-37.8 29.9-25 37.6-22.1 35.7-58.2 38-25.7 1.7-35.4 3.8-50.1 11.2-12 6-26.1 16.4-27 19.8-.3 1.4-.4 2.9-.1 3.2.4.3 4.7-2.2 9.7-5.7 23.3-15.9 43.5-22 72.9-22 12.5 0 23.9-1.6 30.5-4.1 10.4-4.1 17.8-11.6 30.5-30.6 9.3-14.1 14.9-18.9 31.3-27 10.2-5 19.1-11.4 23.7-17 4.3-5.2 4.2-9.7-.4-15.7-4-5.3-3.5-5.5 5.5-3.1 3 .8 6.9 1.5 8.5 1.5 3.5 0 9.3 3.3 10.2 5.8.4.9 4.2 7.9 8.5 15.6 15.8 27.8 15.6 34.9-.9 51.3-9 8.9-8.6 8.8-23.3 9.8-21.5 1.5-42 6.3-80 18.7l-30.7 9.9c-1.8.6-3.3 1.1-3.3 1.3s.7 2 1.5 4c1 2.3 2.2 3.6 3.4 3.6 1 0 10.6-2 21.2-4.5L393 1192c2.7 0 0 3.2-9.1 11-22.1 18.9-36.8 37.7-42.4 54.4-2.9 8.5-3.1 13.2-1.1 18.1 1.4 3.2 1.9 3.5 5.4 3.5 2.2 0 4.4-.6 4.9-1.3.6-.6 2-4.6 3.3-8.7 3.7-12.6 8.1-19.7 18.7-30.7 8-8.2 14.4-13.6 26.8-22.5 12.1-8.7 21.4-14.3 22.2-13.4.4.4-1.4 6.8-4.1 14.4-7.7 22-9.8 29.3-10.3 36.4-.6 6.6-.1 7.6 2.4 6 2.9-1.9 28.5-58.9 30.7-68.4.5-2.4 2.5-3.7 13.2-8.9l12.6-6.1 3.7 3.5c17.3 16.7 22.9 21.7 25.4 22.3 1.6.3 3.3.2 3.8-.3.8-.8-10.1-15.9-18.8-25.8-5.7-6.5-8.7-14.4-7.9-20.6 1.1-8.5 3.5-14.9 5.5-14.9 2.6 0 23.3 7.2 34.7 12.1 9.3 4 16.2 4.9 17.1 2.3.2-.6-11.8-7-26.7-14.2-17.6-8.7-27.5-14.1-28.5-15.6-2.1-3.2-12.5-31.1-12.5-33.6 0-1.1.6-2 1.3-2 3 0 13.3 4.2 18.1 7.3 14.1 9.3 22.9 12.9 37.1 15.2 5.3.8 11 2.2 12.5 3 1.6.8 9.3 7.9 17.1 15.8 20.8 21 23.6 28.2 19.1 50.3l-2.7 14.2c-.7 4.3-.7 4.3 2.1 4 2.5-.3 3-1.1 6.6-11.8 6-17.8 6.1-18 5.6-26.5-.6-11.7-4.6-18.8-23.2-40.9-2.1-2.6-3.7-4.9-3.4-5.1.3-.3 5.8-.8 12.4-1.1 14.4-.8 23.6.5 34.1 4.7 4.3 1.7 17.7 6.5 29.8 10.6 27.9 9.5 30.8 11.2 38.5 22.3 5 7.3 7.4 9.4 14.2 12.5 4.9 2.2 6 2.4 7.8 1.3 1.1-.7 2.4-2.4 2.7-3.7.5-2-.1-3.1-2.9-5.5-2.1-1.8-4.3-5.2-5.4-8.1-2.5-6.9-13.6-17.8-22.9-22.7-3.8-2-13.3-5.7-21-8.3s-14.2-4.9-14.5-5.2c-1.1-1.2 31 .6 37.5 2.1 25 5.7 44.5 20.6 80.7 61.8 15.9 18 20.3 22.2 30.2 28.7 9.6 6.2 19 9.9 28.8 11.4 8.5 1.2 9.7.7 9.8-3.8 0-1.6-1.4-2.5-6.5-4.3-19.7-6.9-30-16.2-46.5-42.2-4-6.3-8.3-12.8-9.7-14.4-1.3-1.6-2.2-3-2-3.2.2-.3 5.5 2.2 11.8 5.4 11.7 6 22.4 9.4 40.9 13.2 6.7 1.4 13.1 3.4 17.7 5.8 5.7 2.8 7.6 3.3 8.5 2.4s.4-2-2.2-4.7c-2.8-2.9-5.4-4.2-13.5-6.6-20.9-6.2-39.7-14.7-59-26.7-6.6-4.1-15.8-9.5-20.5-12s-12.4-7.6-17.1-11.2c-21.6-16.6-42.3-25-69.4-28-6-.7-28.6-1.5-50.1-1.9l-39.2-.6 44.2-22.2c24.2-12.3 45.7-22.5 47.7-22.9 4.8-.8 13.4 2.2 29.4 10.4 27.1 13.8 29.8 14.9 46.3 19.3 6.3 1.6 13.3 3.9 15.5 5.1 2.3 1.1 9.1 7.1 15.2 13.2 6 6.1 13.7 13.5 17 16.5 7.6 6.8 23.8 18.1 25.9 18.1 2.9 0 2.8-.3-8-12.2-32.3-36.1-35.3-39.8-32.6-39.8 1 0 16.1 6.4 29.4 12.4 3.1 1.4 10.4 4.1 16.2 6 9.7 3.3 13.6 3.7 13.6 1.6 0-.5-7.1-5.3-15.7-10.6l-16.2-10.1c-2.3-1.8 21.9-3 27.9-1.3 2.4.6 10.8 5 18.5 9.7s28.2 15.5 45.5 24.1l31.4 15.5 3.3-3.8c1.8-2.1 3-4.1 2.8-4.6-.3-.4-5.9-4.3-12.5-8.6s-12-8-12-8.3 6.1-1.7 13.5-3c8.3-1.5 13.5-2.9 13.5-3.6 0-.8-4-1.4-12.7-1.8-18.6-.9-27.6-2.4-37.7-6-19-6.8-27-11.2-23.8-12.9.4-.2 7.9.2 16.7.9l38.5 2.8 27.1 2.2c4.4.5 4.6.4 5.9-2.6.7-1.7 1.1-3.2.9-3.4-.4-.2-16.3-3.8-31.9-7.1-10.8-2.3-38.2-5.4-59-6.6-12.7-.7-33-.9-58.5-.4-52.6.9-48.9 1.8-91-22.1-32.1-18.2-32.6-18.4-37.7-18.4-2.5 0-9.6 1.9-16.8 4.4-17.5 6.2-21.6 7.8-37.5 15.1-17.1 7.8-36.4 15.8-44.5 18.2-11.1 3.4-28.4 3.8-34 .9-5.9-3.2-7.3-5.9-11.2-21.6-5.5-21.6-7.8-39.3-7.8-59.1 0-13.4-2.3-28.9-7-48.5l-22.5-89.9c-6.9-26-13.8-54-15.7-64-1.9-10.2-2.2-15.3-2.2-34v-22l6.7-27 13.7-55 10-38.8c9.8-35 25.2-43.8 63-35.8 10.5 2.2 44.2 8.1 46.5 8.1.9 0 1.5-1 1.5-2.5 0-1.4-.4-2.5-.9-2.5s-8.1-1.3-16.9-3l-18.1-3c-4.2 0-2.9-2 3.6-5.6 3.7-2.1 6.2-3.9 5.6-4.1s-10.2.3-21.4 1.1c-20.8 1.6-21.8 1.5-21.9-2.1 0-.6 7.7-5.7 17-11.3 9.4-5.6 17-10.3 17-10.5s-.5-1.5-1.1-2.8l-1.1-2.4-5.6 1.7c-3.2 1-14 4.8-24.1 8.4-10.1 3.7-18.6 6.4-18.9 6.1-1.5-1.5 11.3-28.1 19.4-40.2 12.3-18.5 23-21.8 34.1-10.7 4.5 4.5 10 14.9 13.9 26.2 2.6 7.4 4.8 6.7 5.2-1.6.2-4 .7-6.2 1.5-6.2.7 0 5.2.7 10.1 1.6 7.3 1.2 9.8 1.3 13.9.3 5.1-1.2 11.7-6 11.7-8.6 0-1.5-.9-1.4-19 .7-3.6.4-6.7.6-6.9.4s1.7-3.1 4.4-6.5 4.4-6.4 3.9-6.9-4.9 1.6-9.9 4.5c-4.9 3-9.3 5.1-9.7 4.7-3.2-3.4-16.7-21.7-16.1-21.9.4-.1 8.5-1.4 17.8-2.9l24-3.6c9.1-1.4 15-.5 21.6 3.5 5.4 3.2 10.7 9.8 18.9 23.3 8 13.2 13.5 19 25.8 27 28.5 18.6 32.1 21.3 40.8 29.9 5.1 5.1 10.4 11.5 12.3 14.8 3.1 5.6 3.4 5.9 6.4 5.3 1.8-.3 8.3-.8 14.5-1.2 6.1-.4 11.2-1 11.2-1.3s-9.4-6.4-20.8-13.4l-55.7-34.9c-.4-.3-.4-1.5-.1-2.5.5-1.7 2.9-2.2 19.4-4.2 23.2-2.8 24.3-3.1 17.7-5.7-6.3-2.4-20.3-2.5-29-.1a110.26 110.26 0 0 1-11.1 2.3c-5.8.7-3.8 2.9-19.9-20.6l-14.3-20.6c-2.9-4.2-5.1-7.8-4.8-8.1s9.7-1.9 20.8-3.5c47.3-6.9 59.4-3.8 82.4 21.2 14.3 15.6 24.8 20.9 46.2 23.5 24.6 3 36.9 7.5 47.7 17.6 3.6 3.4 7.9 8.8 9.9 12.3 3.3 5.8 3.7 6.2 6.5 5.8 2-.3 2.8-.8 2.4-1.6-1.3-2.1-10.6-15.1-16.1-22.4-3-4-5.2-7.5-4.9-7.8 1.4-1.4 16.5-2.6 27.7-2.1 20.1.9 35.1 5.6 50 15.7 6.2 4.2 18 16.3 22.8 23.2 8.1 11.8 18.9 37.9 22.7 55l1.7 7.8 2.4-1.8c1.6-1.1 2.3-2.4 2-3.7-.2-1.1-5.2-15.4-11.1-31.8-6-16.3-10.5-30-10.1-30.4 1-1 12.6 2.6 18.9 5.9 7.9 4.3 16.6 13.8 21.6 23.9 2.3 4.5 4.1 7.8 4.1 7.5 0-.4-1-4.5-2.1-9.2-2.2-8.5-2.2-8.6-.2-10.5 2-2 2.1-1.9 37.9 21.2l37.4 23.7c1.9.7-10.5-13.1-21.2-23.6-17-16.8-27.1-22.5-57.6-32.6-11.1-3.7-20.2-7.3-20.2-7.9.1-3.9 1.4-3.8 23.8 1.8l23.4 5.5c2 0-8.2-4.5-16.8-7.4-4.3-1.5-18.4-5.1-31.5-8.2-26.9-6.2-35.9-9-47.6-14.4-9-4.2-21.3-12.3-25.7-16.9l-2.9-3 2.4-.5c1.3-.3 8.5-1.5 15.9-2.6 18.4-2.9 24.3-3.9 24.7-4.4.3-.2-1.8-1.7-4.6-3.3-2.8-1.5-5.1-3.1-5.1-3.4 0-.9 25.2-20.8 33.1-26.1 15.9-10.5 29.6-15.8 46.4-17.8 5.5-.6 10.2-1.3 10.3-1.5.2-.2-.8-2.1-2.2-4.2-1.4-2-2.6-4.3-2.6-4.9 0-.7 2.1-1.5 4.7-1.9s6-1.3 7.5-2.1 5.2-2 8.2-2.8c11-2.9 16.4 1 24.6 17.9 6 12.6 14.2 21.8 26.4 30 8.3 5.5 23.8 13.6 24.5 12.9.3-.2-1.8-2.4-4.5-4.9-5.7-5.3-6.2-5.1 12-3 7.1.8 13.1 1.3 13.4 1.1.4-.5-1-.9-13.5-4.1-24.3-6.1-40.6-15.4-48.1-27.2-4.6-7.3-9.4-25.1-6.6-24.6 2.1.3 31.8 17.5 36.7 21.2 6.2 4.7 16.1 10.2 23.7 13.1 8.8 3.5 17.4 5 34.5 6 22.7 1.3 32.5 4.4 45.1 14.1 3 2.3 7.3 6.2 9.6 8.8 7.4 8 29.4 22.9 32.3 21.7 4.2-1.6 1-4.8-28.2-28.1-25.6-20.4-29.8-24.2-29.6-26.3.1-1.3.4-2.7.7-2.9.4-.4 69.2 18.6 80.5 22.3 2.5.7 4.6 1.2 4.9.9.2-.2-1-2.1-2.7-4.2s-2.7-3.9-2.2-4.1 19.5 3.4 42.2 7.8l66.6 12.7c.1-.1.3-1.5.5-3.1l.3-2.9-10-1.7-34.5-6c-13.5-2.3-24.9-4.6-25.3-5-.4-.3-.5-1.4-.1-2.3.5-1.4 2.3-1.7 11.3-1.9 8.1-.1 6-.3-8.9-.9-45.3-1.9-73.4-6.1-100.7-15.1-5.1-1.7-9.3-3.3-9.3-3.7.1-.3 2.2-2.1 4.8-3.9 16-11.1 42.2-30.4 42.2-31.1 0-.4-.6-1.5-1.3-2.5-1.2-1.7-2.2-1.2-13 5.5-6.4 4.1-15.7 11-20.6 15.4-10.7 9.6-17.6 13.9-28.1 17.6-11.6 4.1-21.7 5.9-33.2 5.9-10 0-28.7-1.6-29.6-2.5-1-1 23.6-20 43.8-33.6 23.1-15.7 32-22 32-22.9 0-.5-.9-1.1-1.9-1.5-2-.6-3.8-4.1-2.7-5.2.6-.6 13.6-5.3 28.9-10.4 5.5-1.9 9.7-3.9 9.7-4.6 0-1.6-.1-1.6-14.7.4-10 1.4-12.5 1.4-13.7.4-2.4-2-2-3.2 3.7-10.1l28.1-34.3 22.4-28.2c-.2-.2-6.8 4-14.7 9.2-14.7 9.7-25.2 19.2-28.3 25.4-.9 1.9-4.9 9.9-8.8 17.9-10.5 21.3-20.2 35.3-34 49.1-14.8 14.9-24.9 21.7-46.9 31.4-15.2 6.7-19.2 6-30.6-5.5-6.7-6.8-6.8-7-5.4-9.6 2.7-5.3 10.1-12.3 15.3-14.9 6.6-3.2 14.6-4.1 22.7-2.6 3.3.7 6.3 1 6.6.7.3-.2-2.7-2.1-6.6-4-10.1-5.1-15.7-5-23.8.3-3.2 2.2-9.8 7.7-14.7 12.2l-8.8 8.2-23.5-2.6c-12.9-1.4-23.7-2.8-24-3.1-.3-.2 3.3-5.1 7.9-10.8l21.3-26.8 77.3-97.3c3.1-3.5-.1-2.9-10.6 2-5.1 2.4-5 .7.3-4.7 9.1-9.3 19.7-13.2 40.1-15 14.2-1.2 18.5-2 17.9-3-.3-.4-2.2-1.1-4.2-1.4-6.1-1.1-10.5-2.8-9.6-3.6.4-.5 3.5-1.9 6.8-3.3 16.6-7 21.5-9.6 20.8-11.3-.8-2.1-.2-2.2-29.8 8.1l-27 9.2c-2.3.6-.5-1.4 16.6-19.2l22-22.9c6.3-6.5 11.4-12.5 11.4-13.3 0-.9-.7-2-1.6-2.6-1.4-.9-4.8 1.8-19.1 14.9l-29.4 26.8-12.1 10.9-13.3 22.1-25.2 41.4-11.8 19.8c0 .3-.9 1.7-1.9 3-1.8 2.3-2 2.4-2.9.7-2-3.6-3.5-14.5-2.9-20.3.7-6.8 3.5-15.5 7.9-25 4.2-9.1 7.8-20.3 7.8-24.1 0-3.1-.5-2.6-5.3 5.6l-10.2 17.7c-3.8 6.8-5.4 8.8-7 8.8-3.9 0-4.1 2.4 4.3-36.5 2.2-9.9 3.8-18.2 3.5-18.5-.2-.3-2.5 1.9-5 4.8-2.4 2.8-4.9 5.2-5.4 5.2s-.9-3.8-.9-8.5c0-8.4 0-8.5-2.5-8.5-1.8 0-2.6.6-2.9 2.2-2.9 14-4.9 28.3-5.3 37.3-.5 10.1-.3 12.1 2.7 23.5l4.2 16.5c1.5 6.2.3 25.8-2.2 34.9-2.3 8.5-8 20.9-13.2 28.4-6.9 10.1-24.8 24.9-60.7 50.3L950 422.8c-8.5 6.2-15.8 11.2-16.1 11.2-1.2 0-2-5.6-2.6-19.5-.4-10.9-.2-16 1.2-23 4.3-23.2 16.2-42.8 37.5-61.9 4.1-3.7 4.2-4 2.5-5.2-1-.8-2.2-1.4-2.7-1.4-1.5 0-.8-2.6 2.3-9.5 1.6-3.7 2.8-7.4 2.5-8.1-.8-2-3.3-1.7-4.1.3-.3 1-2.8 5.4-5.4 9.8l-11.1 19-12.2 20.7c-3.2 5.4-5.8 10-5.8 10.2 0 .3-1.3 2.7-3 5.3-1.6 2.6-3 4.3-3 3.8s2-10.1 4.5-21.4l8.6-39.1 5.4-24.8c.7-3.5 1.5-6.6 1.8-6.8.2-.2 8-1.1 17.3-2 19.7-1.9 20-1.9 18.5-3.8-.7-.8-4.8-1.5-11.9-2-5.9-.3-21.5-1.5-34.7-2.6-95-7.9-85.9-6.8-86.3-10.5-.3-3-.2-3 29.9-18 16.6-8.3 31.5-16.1 33.1-17.4s4.8-5.1 7-8.5c12.1-18 18.7-23.5 29.3-24.3 4.5-.4 7.9-.1 11.6 1.1 2.8 1 5.3 1.5 5.5 1.3s-1.2-2.5-3.2-5.1l-3.6-4.8 2.8-3c7.2-7.5 20-15 32.4-18.9 6.8-2.2 9.2-2.4 26-2.3 16.5 0 20.8.4 40.4 3.7 12 2.1 22.1 3.6 22.3 3.4s-5.4-2.1-12.4-4.1c-7.1-2-13.5-4-14.3-4.3-1.7-.6-1.6-.7 14.5-5.3 6.1-1.7 11.7-3.5 12.5-3.8.8-.4-16.7-.9-39-1.2l-40.5-.5 21-18.1c19.3-16.7 33.7-30.5 41.3-39.4 3.6-4.2 14.5-21 14.1-21.5-.2-.2-4.2 3.1-8.9 7.2l-11.5 10.2-36.4 31.8c-6.4 5.7-11.9 10.3-12.2 10.3-.4 0-1.9-2.6-3.5-5.8l-2.8-5.7-1.2 5.7c-3.2 16.3-12.9 27-34.5 38.3-7.3 3.8-14.9 8-16.7 9.3-3.7 2.5-5.3 2.2-3.6-.6.6-.9 6.8-13 13.9-26.7l18.1-35.2c3-5.6 5.4-10.8 5.4-11.4 0-1.2-2.9-3.8-4.2-3.9-.4 0-5.2 8.9-10.7 19.8-10.1 20.3-20.1 37.8-28 49.2-8.3 12-13.1 17.9-23.6 28.9-28.3 29.4-77 57.3-133 76-18.4 6.1-44.9 13.5-46.5 12.9-1-.3 18.9-30.6 23.8-36.2 5.8-6.7 6.6-9.1 6.3-20.2-.2-8.7.2-11.3 2.4-18 4-11.9 17.3-32.4 26.8-41.1 8.9-8.2 10.9-8.8 30.4-8.8 17.6 0 20-.5 18.7-3.8-.5-1.5-2.5-1.7-15-1.7-7.9 0-14.4-.3-14.4-.6s4.6-5 10.2-10.4c11.5-11.1 19-15.6 38.8-23.1l11.5-4.4-6.7-1.4c-3.8-.8-6.8-1.9-6.8-2.5.1-.6 3.3-4.5 7.2-8.6 8.7-9.1 13.2-15.9 15.1-23.1C894 71 895.4 52 894.2 52c-1.7 0-5.2 8.4-6.7 16-3 16.1-15 29.9-30.2 34.9-8.9 3-14 2.7-18.2-.8l-3.4-2.8 3.3-7.9 8.2-20.4 7.4-17.8c2.6-5.7 2.4-7.2-.7-7.2-1.4 0-2.5 1.2-3.5 3.7-10.2 24.8-36.5 78.5-40.4 82.7-.5.4-2-1-3.5-3.3-6.6-9.9-13.1-10.4-27-1.9-8.7 5.4-14.9 7.6-16 5.9-.2-.5 1.5-5.1 3.9-10.2C778.9 98 786 81.8 786 80.3c0-.7-1-1.3-2.2-1.3-1.9 0-3.3 2-8.3 12.6-3.3 7-6.5 12.9-7.2 13.1-.6.3-4.6-1.4-8.8-3.6-4.2-2.3-8-4.1-8.6-4.1-.5 0 .2 1.7 1.5 3.8 3 4.7 5.6 12.3 5.6 16.1 0 8-8 20.3-16.1 24.9-4.6 2.5-5.5 3.8-15.2 21-9.2 16.4-10.4 18.2-12.6 18-1.9-.2-2.7-1.2-3.7-4.3-2.7-8.7-5.6-18.6-8.8-30.5-3.3-12.5-3.3-12.5-6.5-12.8-1.7-.2-3.1-.1-3.1.1 0 .3 1.3 3.3 3 6.8 8.5 18.3 8.4 38.1-.1 59.7-12.4 31.3-25.2 45.7-49 55.6-8.9 3.7-24.9 8-33.6 9.2l-5.3.7v-4.5c0-2.5.5-10.3 1.1-17.4.5-7.1 1.1-23.5 1.3-36.4l.3-23.5 5-14c4.9-13.6 7.8-21.3 12.2-32.3 13-32.5 18.4-48.5 20-59.2 1.1-6.6 3.1-47 2.5-47.8-.1-.2-3.5 6.1-7.4 14l-11.7 22.6c-4.9 9.1-5 8.7 4 9.7 4.8.5 5.7.9 5.3 2.3-5.5 17.2-12.4 36.6-13.2 36.9-.5.1-1.7-1.4-2.7-3.5-1-2-4.3-8.3-7.3-14-4.5-8.4-5.9-10.2-7.8-10.2-3.3 0-3.8 1-1.7 3.9 6.9 9.7 11.1 22 11.1 32.5 0 12.7-4.2 24.8-19.3 56.4l-4.4 9.3-4.5-7.8c-18.5-32-20.8-37-21.5-46.5-.7-9.1 1.7-16.7 8.8-28.3 5.5-9.1 8.8-18.6 11.5-32.8l1.8-9.8-7.4-7.4v8.2c0 10.6-2.1 16.2-11.2 30.1-3.9 5.9-8.1 12.9-9.4 15.6-2.6 5.7-2.3 6.3-5-9.4-2.4-14.1-7.1-32.3-11.1-43-4.3-11.4-11.3-26.4-12-25.6-.3.2.9 6.7 2.6 14.3l6.5 29.9c4.3 19.1 4.3 19.4 1.4 19.4-1.8 0-3.2-1.6-6.3-6.8-2.1-3.7-4.7-7.8-5.6-9.2L523 65.2c-8-12.8-8.3-13.2-10.4-11.8-1.1.8-2 1.9-1.8 2.6.1.6 4.1 7.5 8.9 15.3 8.8 14.5 20.9 35.5 29.3 50.7 2.5 4.7 7.2 13.1 10.4 18.8s5.6 10.5 5.4 10.7-12.5-4.1-27.3-9.6c-24.9-9.2-27.1-9.8-28.2-8.2-.7.9-1.3 2.4-1.3 3.3 0 1.8 5.9 5 9.3 5 4.9 0 19.6 4.3 26.4 7.7 3.9 2 9.4 5.5 12.1 7.9 6 5.2 13 15.6 16.1 23.9 5 13.2 6.6 15.9 14.6 23.9 10.4 10.4 12.1 14.9 11.9 31.1-.1 9.1-.6 12.2-2.6 17.7-3.6 9.7-8.3 16.9-16.9 26.1l-7.5 8.1-4.3-7.8c-2.3-4.3-4.4-7.6-4.5-7.4-.2.1 0 5.5.5 11.8.4 6.3.8 14.8.8 18.8.1 6.9 0 7.3-2 7-1.7-.2-2.9-2.4-5.8-9.8-9.6-24.9-21-42.4-56.5-87-26.1-32.7-31.8-41.5-36.4-56-4.2-13.4-3.7-26 1.8-38.9l3.1-7.2-9.2-9.7-9.9-10c-.4-.2-.1 2.3.6 5.5l3.9 16.5 3.1 12.2c.9 2.4-.7 2-5.9-1.5-14.3-9.4-17.9-21.5-14.2-46.9l9.8-75.4c.1-1.2-.5-2.2-1.4-2.4-1.3-.2-1.9 1-2.8 6zM843 109.7c0 9.5-.7 10.7-10.1 18.2-4.9 3.9-9.3 7.1-9.8 7.1-2.4 0-2.8-8.3-.7-13.3 1.6-3.9 8.2-9.9 14.6-13.2 2.5-1.3 4.8-2.4 5.3-2.5.4 0 .7 1.7.7 3.7zm-47.3 27c4.5 2.1 8.2 4.3 8.3 4.9 0 .5-2.4 4.8-5.3 9.5l-29.8 48.1c-1.9 3.2-3.7 5.8-4 5.8-.4 0-.9-3.7-1.3-8.3-1.3-16.1-1.7-17.7-3.8-17.7-1.8 0-1.9.5-1.3 6.6 4.1 37.9-7.1 69.9-34 97-15.7 15.9-29.1 23.9-53.5 31.6-17.6 5.6-45.4 15.4-92.4 32.5-14.5 5.2-19.6 6-19.6 3.1 0-2 21-43.7 27.1-53.8 10.6-17.4 14.6-19.9 40.9-24.6 11.9-2.1 22.6-6 32.1-11.6 10.6-6.2 25.7-21.6 33.9-34.6 20.2-32 26.2-40.5 40.2-56.8 14.4-17 23.3-23.7 41.4-31.8 4.3-2 9-3.6 10.4-3.6s6.2 1.7 10.7 3.7zm-372.2 92.6l-4.8 8.8c-8.6 15.9-9.9 17.9-11.9 17.9-1.9 0-2-.5-1.7-11.4.4-11.1.5-11.6 3.4-14.6 3.3-3.4 6.9-4.8 13.2-4.9l4.3-.1-2.5 4.3zM871 272.5c10.4 1.3 56.4 8.5 63.6 10 2.1.5 2.2.8 1.7 13.2-.6 18.1-2 28.5-5 36.2-9.1 23.9-12.2 37.5-13 57.6-.4 10.3-.1 17.6 1.2 27.5 1 7.4 1.7 14.9 1.7 16.7-.2 5.4-2.9 10.2-9.9 17.5-15.8 16.3-34.2 24.5-60.8 26.8-14.7 1.3-53.5.3-53.5-1.4 0-.6 3.2-4.8 7-9.3 6.9-8.1 8.4-11.3 5.6-11.3-.8 0-7.2 5.1-14.2 11.2-6.9 6.2-12.9 11.3-13.2 11.3-.2 0-.9-.7-1.5-1.6-.8-1.3.1-4.6 3.8-13.9 4.1-10.1 4.7-12.3 3.4-13.1-.7-.5-1.9-.9-2.6-.9s-4 5.8-7.4 12.9l-6.1 13-4.2-2.6c-12.8-8.1-31.2-25.4-42.8-40.4-3.4-4.3-6.4-7.9-6.8-7.9s-1.5.9-2.4 1.9c-3.1 3.4-11.4 6.4-16.1 5.7-4.1-.7-13.4-5.6-19-10l-2.7-2.2 3.2-6.4c8.3-16.6 22-27.8 45.1-36.8 13-5.1 29.7-9.8 70.2-19.8 17.4-4.3 31.7-8.3 31.7-8.9-.1-3.8-1.5-3.8-18.6.8l-53.2 14.1-30.5 8c-7.6 2.1-14.5 3.6-15.4 3.4-1.2-.2-.8-1.6 2-7 4.5-8.6 5.8-10.3 16.7-21.4 13.9-14.1 29.5-24.5 38.9-26 5.7-.9 24.8-15.1 24.3-18-.2-1-.6-2.1-.8-2.3-.5-.5-18.9 7.1-31 12.9-12.5 6-22.5 13.5-38.3 28.6-18.6 17.9-26.5 28.3-36.7 48.7-16.4 32.7-39.3 48.3-79.4 54.3-12 1.8-58 2.7-59.6 1.2-1.3-1.3 3.5-16.9 8-26.3 5.6-11.4 12.2-20.1 22.6-29.8 14.8-13.7 33.3-24.4 74-42.6l60-27.3c30.5-14.5 60.6-25.7 107-40.2 26.4-8.2 31.1-8.8 53-6.1zm-473 120c.7.8 5.6 4.4 10.9 8 12.3 8.3 13.6 10.1 13.5 18.3l-.1 6.4 5.6 4.6c3.1 2.6 9 8 13.2 12.2 6.3 6.3 8.5 9.4 13.6 19.5 7.3 14.4 9.8 21.5 11.9 33.8 2.9 16.3.7 30.6-7.1 47.7-4.2 9.3-8.8 22.2-13.7 38.2-1.3 4.3-2.6 7.8-2.9 7.8-.4 0-4.2-5.7-8.6-12.8l-16.8-26.7c-16.9-26.7-25.7-46.4-31.7-70.5-2.1-8.5-2.3-11.7-2.2-31 0-20 .2-22.2 2.7-31.3 2.9-10.8 8.5-25.7 9.7-25.7.4 0 1.3.7 2 1.5zM1064.1 111l-4.3 4 7 7.7c3.9 4.3 8.4 9.1 10.1 10.8l3.1 2.9 3.7-3.6 3.7-3.7-4.9-6.3-8.4-11c-2-2.6-4-4.7-4.6-4.7-.5 0-3 1.8-5.4 3.9zm-407.5 15.6c-3.3 4.2-3.7 3.6 9.2 15.8l4.2 4 3-2.9c1.7-1.6 2.9-3.4 2.8-4-.2-.5-3.9-4.5-8.3-8.7l-8.1-7.7-2.8 3.5zm371.5 45.8c-1.7 2.5-3.1 5.1-3.1 5.8 0 1.1 21.7 14.8 23.4 14.8 1.3 0 5.9-8.1 5-8.9-.9-.9-13.7-10.1-19.1-13.9l-3.2-2.2-3 4.4zm-694.6 11.3c-2 .5-5.9 3.2-10.5 7.3-1.4 1.2-3.5 2.9-4.8 3.8-2 1.3-2.3 2.1-1.7 5.1.4 2 .8 3.7 1 3.9.1.1 5.8-.6 12.6-1.8l15.8-2.6 3.3-.5-.6-5.2c-.8-5.9-1.9-7.5-6.3-9.4-3.3-1.3-5.2-1.5-8.8-.6zm465.5 1.9c0 .6 9.7 18.3 12.7 23.2 1.4 2.3 1.4 2.3 8.1-4.2 3.7-3.5 8-7.4 9.5-8.6s2.6-2.4 2.4-2.7c-.5-.4-30.6-8.3-31.9-8.3-.4 0-.8.3-.8.6zm-239 30.8c0 5.1-.1 5.1 14 6.1 4.7.4 9.3.9 10.3 1.1 1.5.5 1.7-.2 1.7-4.9 0-5.3-.1-5.5-3.1-6.1-1.7-.3-7.6-.6-13-.6H560v4.4zm-262.4 16.4c-.7 1.1-1.9 10.2-1.3 10.2.2 0 4 .9 8.3 2 11.7 2.9 13.2 2.8 14-1.5.3-2 .5-3.8.3-4-1.1-1-20.9-7.3-21.3-6.7zm840.4 17.4l-2.4 3.2 6.9 6.2c9.9 9 10.8 9.3 13.9 5.8 1.4-1.6 2.5-3.4 2.5-3.9 0-1.2-15.2-13.9-17.1-14.3-.8-.1-2.5 1.2-3.8 3zm99.8 68.2c-4.3 2.9-7 8.3-6.3 12.4 1.1 6.1 4.7 14 7.9 17.5 2 2.1 5.6 4.3 10.1 6 9.4 3.5 24.6 8 25.1 7.4.7-.6-6.1-23.8-8.6-29.4-3.8-8.7-9.2-12.6-20.8-15.2-3.6-.8-4.7-.6-7.4 1.3zm-1001 4.6c-6 1.8-12.6 6.2-14.5 9.8-2.5 4.5-6.7 17.1-6 17.8.9.9 16.3-2.3 19.6-4 3.2-1.7 6.8-6.1 9.5-11.5 2.1-4.5 2.1-5-.9-9.4-2.7-3.8-3.2-4.1-7.7-2.7zm935.7 68.6l-2.8 3.7 2.4 1.8c1.3 1 5.5 4 9.2 6.5l6.9 4.7 2.4-2.9c2.7-3.4 4-6.7 2.8-7.1-.5-.2-4.7-2.6-9.3-5.3-4.6-2.8-8.5-5-8.6-5-.2 0-1.5 1.6-3 3.6zm-214.1 55.3c-3.1 1.9-4.4 5.4-4.4 11.8 0 2.5 1.1 2.9 19.7 6.9 14.7 3.1 14.9 3.1 16.2-.8 1.1-3.1 1-3.4-5.6-10-3.7-3.7-8.2-7.5-9.9-8.3-4.5-2.1-12.2-1.9-16 .4zm302.3 23.2l-2.9 3.1 8.4 7.9c4.5 4.3 8.5 7.8 8.8 7.8s1.8-1.6 3.4-3.6l3-3.5-8-7.4c-4.3-4-8.3-7.3-8.9-7.3-.5 0-2.3 1.3-3.8 3zm-410.3 68.8c-8.1 4.9-8.6 13.9-1.2 20.8 1.2 1.2 6.4 4 11.3 6.3 5 2.3 9.3 4.4 9.8 4.7.8.5.3-6.3-1.4-18-1.1-8-2.9-10.9-8.5-13.7-5-2.5-6.1-2.5-10-.1zm228.8 16.8c-.7 2.5-.9 4.9-.5 5.3.9.8 17.4 5 19.7 5 1.4 0 4.3-6.6 3.3-7.6-.8-.9-18.6-7.4-20-7.4-.7 0-1.8 2.1-2.5 4.7zm66.5 23.2c-10.7 10.8-10.8 16.5-.3 26.6 5.3 5.1 22.4 18 31.9 24l2.8 1.8-.6-7.9c-1.6-21.7-2.6-27.9-5.4-34-3.8-8-9.3-12.3-19.7-15.3-3-.8-3.5-.5-8.7 4.8zM996 586.7c-3.2 2.2-6.9 6.3-7.6 8.6-.8 2.6 2.4 12.6 5.7 17.3 2.1 3.1 4.7 5.2 9.2 7.3 5.7 2.8 25.6 10.1 27.6 10.1.8 0-1.5-11.7-4.3-21.5-3.1-10.7-7.7-16.1-17.1-20.6-6.9-3.3-10-3.6-13.5-1.2zm-7.3 71.2c-.9 1.6-1.7 3.3-1.7 3.8 0 1.1 16.2 12.3 17.8 12.3 1.1 0 5.2-7 5.2-8.7 0-.9-17.1-10.3-18.6-10.3-.6 0-1.7 1.3-2.7 2.9zm264.9.8c-4.6 1.3-9.1 9.9-8 15.2.6 2.9 10.6 23.9 11.4 24 .3.1 3.1-4.9 6.3-10.9 6-11.7 6.8-15.4 4.3-21.3-.7-1.8-2.2-4-3.3-5-2.2-1.9-7.5-2.9-10.7-2z"/>

<style>
	:root {
		color-scheme: light dark;
	}

	path {
		fill: light-dark(#000000,#e0e0e0);
	}
</style>

</svg>
