<?xml version="1.0" encoding="UTF-8" standalone="no"?>
<!DOCTYPE svg PUBLIC "-//W3C//DTD SVG 1.1//EN" "http://www.w3.org/Graphics/SVG/1.1/DTD/svg11.dtd">
<svg width="100%" height="100%" viewBox="0 0 1366 1279" version="1.1" xmlns="http://www.w3.org/2000/svg" xmlns:xlink="http://www.w3.org/1999/xlink" xml:space="preserve" xmlns:serif="http://www.serif.com/" style="fill-rule:evenodd;clip-rule:evenodd;stroke-linejoin:round;stroke-miterlimit:2;">
    <g id="Artboard1" transform="matrix(0.974305,0,0,1,-36.0255,-79.1794)">
        <rect x="36.976" y="79.179" width="1401.02" height="1278.82" style="fill:none;"/>
        <clipPath id="_clip1">
            <rect x="36.976" y="79.179" width="1401.02" height="1278.82"/>
        </clipPath>
        <g clip-path="url(#_clip1)">
            <g id="Imagen" transform="matrix(0.102637,0,0,-0.1,0.0261999,1438.18)">
                <path d="M4781,13528C4775,13493 4766,13431 4760,13390C4755,13349 4741,13254 4730,13180C4719,13106 4705,13009 4699,12965C4685,12866 4675,12844 4665,12891C4661,12910 4643,12988 4624,13065C4606,13142 4588,13225 4584,13248C4580,13271 4573,13290 4568,13290C4563,13290 4532,13271 4499,13248C4450,13213 4442,13204 4459,13202C4483,13198 4483,13196 4534,12970C4553,12885 4587,12737 4609,12642C4632,12547 4650,12463 4650,12455C4650,12446 4641,12440 4627,12440C4608,12440 4596,12457 4555,12541C4527,12596 4502,12644 4498,12646C4487,12653 4499,12567 4522,12475C4550,12362 4591,12290 4674,12212C4863,12033 4881,12004 5134,11469C5165,11402 5166,11393 5141,11385C5127,11381 5084,11405 4986,11475C4911,11527 4844,11570 4836,11570C4820,11570 4804,11537 4819,11532C4847,11523 5123,11291 5408,11036C5539,10919 5599,10842 5644,10730C5680,10642 5777,10297 5791,10208C5809,10091 5790,9960 5735,9829C5720,9794 5654,9630 5588,9465C5464,9154 5387,8991 5296,8842C5267,8794 5231,8733 5215,8705C5182,8648 5190,8637 5131,8820C5109,8889 5079,8977 5065,9015C5000,9188 4940,9361 4921,9430C4853,9681 4854,9925 4925,10113C4956,10195 4956,10200 4928,10200C4909,10200 4896,10182 4855,10102C4817,10028 4800,10004 4783,10002L4760,9999L4760,10444C4760,10721 4756,10890 4750,10890C4745,10890 4739,10875 4736,10858C4728,10808 4693,10604 4661,10420L4632,10255L4671,10148C4692,10088 4728,9991 4750,9930C4772,9870 4790,9818 4790,9815C4790,9812 4780,9810 4767,9810C4751,9810 4732,9826 4705,9863C4627,9967 4624,9970 4606,9957C4593,9946 4592,9941 4604,9915C4622,9876 4689,9726 4733,9625C4787,9501 4840,9380 4867,9321C4880,9292 4889,9265 4886,9263C4878,9255 4807,9315 4751,9376C4569,9575 4520,9749 4499,10275C4493,10418 4487,10537 4484,10539C4482,10541 4480,10342 4480,10097C4480,9851 4476,9650 4472,9650C4453,9650 4381,9710 4361,9744C4339,9780 4338,9784 4340,10151C4340,10355 4345,10558 4351,10603C4378,10824 4457,10992 4596,11118C4634,11153 4668,11193 4672,11207C4678,11229 4624,11513 4589,11644L4578,11683L4551,11634C4535,11607 4493,11529 4457,11460C4421,11391 4387,11336 4383,11336C4379,11337 4356,11376 4333,11423C4262,11566 4250,11651 4250,12010C4250,12176 4254,12387 4260,12478C4271,12665 4300,13209 4300,13234C4300,13243 4292,13250 4280,13250C4261,13250 4260,13243 4260,13119C4260,12998 4259,12988 4243,12995C4190,13017 4189,13016 4195,12964C4205,12876 4230,12614 4230,12597C4230,12587 4222,12580 4211,12580C4197,12580 4184,12596 4166,12633L4142,12685L4141,12142C4140,11628 4139,11600 4123,11611C4092,11630 4041,11705 4015,11767C4001,11801 3984,11877 3975,11941C3967,12004 3951,12123 3940,12205C3910,12421 3911,12420 3889,12420C3878,12420 3867,12413 3864,12405C3861,12397 3868,12321 3880,12235C3892,12149 3900,12075 3898,12070C3896,12064 3861,12110 3820,12171L3745,12282L3733,12219C3715,12125 3716,12117 3758,12053C3879,11871 3970,11729 3994,11685C4009,11658 4055,11588 4096,11530C4180,11414 4261,11258 4286,11165C4307,11082 4315,10921 4301,10830C4287,10740 4250,10610 4239,10610C4232,10610 3927,10879 3788,11008C3761,11033 3760,11033 3740,11015C3729,11005 3720,10994 3720,10991C3720,10988 3767,10947 3824,10900C3882,10853 3929,10810 3929,10804C3930,10798 3910,10787 3885,10780C3859,10773 3840,10761 3840,10754C3840,10727 3881,10653 3911,10624C3949,10588 4006,10586 4063,10620C4100,10642 4101,10642 4122,10624C4163,10587 4228,10474 4250,10400C4280,10300 4285,10205 4270,10033C4251,9817 4229,9814 4126,10014C4061,10141 4055,10150 4052,10119C4050,10100 4053,10055 4060,10018C4070,9963 4081,9938 4121,9883C4198,9777 4202,9738 4154,9600C4080,9386 4073,9102 4135,8820C4154,8732 4183,8534 4178,8520C4174,8506 4071,8576 4012,8633C3928,8715 3891,8791 3866,8935C3841,9079 3786,9158 3692,9185C3554,9225 3449,9311 3417,9410C3396,9476 3395,9608 3415,9713C3425,9763 3430,9852 3430,9958C3430,10184 3443,10244 3516,10356L3535,10385L3501,10360C3422,10301 3430,10291 3430,10441C3430,10515 3427,10584 3424,10595C3421,10606 3397,10629 3372,10645C3300,10691 3287,10723 3280,10864C3274,10981 3243,11109 3131,11500C3127,11514 3116,11527 3106,11528C3091,11531 3089,11527 3094,11503C3097,11488 3113,11401 3130,11310C3146,11219 3172,11085 3186,11012C3200,10938 3210,10876 3207,10874C3205,10871 3141,10946 3065,11040C2990,11133 2922,11210 2916,11210C2896,11210 2880,11189 2891,11176C2923,11138 3036,10981 3090,10900C3124,10848 3161,10793 3170,10779C3205,10729 3268,10594 3293,10515C3325,10418 3340,10328 3340,10235C3340,10166 3324,10031 3315,10022C3313,10019 3292,10034 3270,10054C3248,10074 3204,10102 3172,10116C3141,10130 3104,10151 3091,10163C3034,10216 3026,10306 3065,10458C3090,10557 3120,10710 3120,10743C3120,10775 3077,10760 3068,10725C3050,10651 2997,10484 2989,10476C2984,10470 2954,10522 2917,10601C2851,10738 2787,10871 2616,11224C2563,11333 2520,11426 2520,11431C2520,11436 2513,11440 2505,11440C2486,11440 2487,11435 2546,11243C2570,11165 2590,11096 2590,11090C2590,11082 2580,11081 2560,11085C2520,11094 2522,11088 2570,11056C2653,11001 2725,10909 2769,10802C2800,10728 2838,10571 2870,10385C2915,10126 2978,10022 3151,9920C3207,9887 3266,9811 3285,9748C3294,9717 3300,9657 3300,9597L3300,9498L3268,9504C3250,9507 3186,9544 3124,9586C2998,9671 2938,9694 2868,9685C2841,9681 2820,9674 2820,9669C2820,9664 2866,9637 2923,9609C3077,9532 3158,9481 3222,9422C3280,9368 3343,9277 3355,9229C3361,9205 3358,9202 3293,9178L3225,9153L3360,9147C3594,9137 3698,9096 3753,8990C3781,8938 3782,8930 3778,8834C3775,8779 3770,8728 3765,8720C3759,8710 3736,8709 3668,8713C3598,8718 3565,8725 3517,8748C3448,8780 3317,8872 3166,8992C3112,9036 3066,9069 3063,9066C3054,9057 3139,8929 3199,8861C3230,8825 3303,8756 3363,8707C3422,8658 3470,8614 3470,8610C3470,8590 3449,8592 3386,8617C3350,8631 3318,8641 3314,8638C3304,8628 3352,8539 3376,8523C3400,8508 3427,8510 3580,8541C3791,8584 4043,8474 4167,8286C4244,8170 4260,8085 4267,7745C4274,7369 4260,7283 4116,6850C4086,6759 4049,6640 4034,6585C4019,6530 3992,6440 3974,6384C3770,5767 3800,5152 4074,4305C4116,4176 4133,3971 4126,3695C4121,3535 4123,3427 4132,3345C4151,3169 4149,3111 4122,3068C4081,3002 3996,2959 3785,2901C3575,2843 3531,2839 3160,2846C2780,2853 2663,2845 2549,2804C2477,2778 2439,2759 2166,2615C2095,2577 2012,2541 1981,2533C1947,2525 1860,2520 1755,2520C1277,2519 953,2483 705,2403C577,2362 351,2250 371,2238C373,2236 387,2225 401,2212L427,2190L601,2234C805,2287 1081,2341 1300,2370C1598,2411 1807,2423 1763,2397C1759,2395 1640,2356 1500,2310C1121,2189 1090,2179 1090,2175C1090,2174 1097,2156 1105,2136C1118,2106 1124,2101 1143,2105C1155,2108 1223,2124 1293,2140C1364,2157 1423,2170 1426,2170C1429,2170 1403,2134 1370,2089C1270,1959 1313,1948 1448,2070C1564,2175 1680,2230 1870,2273C1934,2288 1975,2305 2225,2425C2427,2522 2559,2578 2613,2591C2682,2606 3084,2600 3101,2583C3113,2571 3108,2568 2932,2437C2886,2403 2832,2363 2812,2347C2787,2329 2716,2303 2590,2266C2302,2181 2135,2123 2011,2064C1949,2034 1895,2010 1891,2010C1888,2010 1874,2001 1861,1991L1837,1972L1866,1966C1888,1961 1942,1975 2075,2020C2399,2131 2582,2182 2597,2166C2601,2162 2574,2129 2537,2092C2500,2055 2470,2019 2470,2012C2470,1991 2518,1967 2548,1973C2563,1976 2614,2004 2659,2035C2782,2118 2774,2122 2765,1987C2758,1874 2759,1870 2778,1870C2805,1870 2828,1912 2872,2040C2946,2254 2988,2300 3250,2456L3365,2524L3545,2532C3752,2540 3824,2551 3934,2591C4063,2638 4143,2625 4171,2552C4186,2512 4159,2483 4055,2434C3887,2355 3753,2248 3677,2135C3427,1759 3456,1778 3095,1755C2838,1738 2741,1717 2594,1643C2474,1583 2333,1479 2324,1445C2321,1431 2320,1416 2323,1413C2327,1410 2370,1435 2420,1470C2653,1629 2855,1690 3149,1690C3274,1690 3388,1706 3454,1731C3558,1772 3632,1847 3759,2037C3852,2178 3908,2226 4072,2307C4174,2357 4263,2421 4309,2477C4352,2529 4351,2574 4305,2634C4265,2687 4270,2689 4360,2665C4390,2657 4429,2650 4445,2650C4480,2650 4538,2617 4547,2592C4551,2583 4589,2513 4632,2436C4790,2158 4788,2087 4623,1923C4533,1834 4537,1835 4390,1825C4175,1810 3970,1762 3590,1638C3439,1589 3300,1544 3283,1539C3265,1533 3250,1528 3250,1526C3250,1524 3257,1506 3265,1486C3275,1463 3287,1450 3299,1450C3309,1450 3405,1470 3511,1495C3930,1591 4280,1670 4290,1670C4317,1670 4290,1638 4199,1560C3978,1371 3831,1183 3775,1016C3746,931 3744,884 3764,835C3778,803 3783,800 3818,800C3840,800 3862,806 3867,813C3873,819 3887,859 3900,900C3937,1026 3981,1097 4087,1207C4167,1289 4231,1343 4355,1432C4476,1519 4569,1575 4577,1566C4581,1562 4563,1498 4536,1422C4459,1202 4438,1129 4433,1058C4427,992 4432,982 4457,998C4486,1017 4742,1587 4764,1682C4769,1706 4789,1719 4896,1771L5022,1832L5059,1797C5232,1630 5288,1580 5313,1574C5329,1571 5346,1572 5351,1577C5359,1585 5250,1736 5163,1835C5106,1900 5076,1979 5084,2041C5095,2126 5119,2190 5139,2190C5165,2190 5372,2118 5486,2069C5579,2029 5648,2020 5657,2046C5659,2052 5539,2116 5390,2188C5214,2275 5115,2329 5105,2344C5084,2376 4980,2655 4980,2680C4980,2691 4986,2700 4993,2700C5023,2700 5126,2658 5174,2627C5315,2534 5403,2498 5545,2475C5598,2467 5655,2453 5670,2445C5686,2437 5763,2366 5841,2287C6049,2077 6077,2005 6032,1784C6021,1730 6009,1666 6005,1642C5998,1599 5998,1599 6026,1602C6051,1605 6056,1613 6092,1720C6152,1898 6153,1900 6148,1985C6142,2102 6102,2173 5916,2394C5895,2420 5879,2443 5882,2445C5885,2448 5940,2453 6006,2456C6150,2464 6242,2451 6347,2409C6390,2392 6524,2344 6645,2303C6924,2208 6953,2191 7030,2080C7080,2007 7104,1986 7172,1955C7221,1933 7232,1931 7250,1942C7261,1949 7274,1966 7277,1979C7282,1999 7276,2010 7248,2034C7227,2052 7205,2086 7194,2115C7169,2184 7058,2293 6965,2342C6927,2362 6832,2399 6755,2425C6678,2451 6613,2474 6610,2477C6599,2489 6920,2471 6985,2456C7235,2399 7430,2250 7792,1838C7951,1658 7995,1616 8094,1551C8190,1489 8284,1452 8382,1437C8467,1425 8479,1430 8480,1475C8480,1491 8466,1500 8415,1518C8218,1587 8115,1680 7950,1940C7910,2003 7867,2068 7853,2084C7840,2100 7831,2114 7833,2116C7835,2119 7888,2094 7951,2062C8068,2002 8175,1968 8360,1930C8427,1916 8491,1896 8537,1872C8594,1844 8613,1839 8622,1848C8631,1857 8626,1868 8600,1895C8572,1924 8546,1937 8465,1961C8256,2023 8068,2108 7875,2228C7809,2269 7717,2323 7670,2348C7623,2373 7546,2424 7499,2460C7283,2626 7076,2710 6805,2740C6745,2747 6519,2755 6304,2759L5912,2765L6354,2987C6596,3110 6811,3212 6831,3216C6879,3224 6965,3194 7125,3112C7396,2974 7423,2963 7588,2919C7651,2903 7721,2880 7743,2868C7766,2857 7834,2797 7895,2736C7955,2675 8032,2601 8065,2571C8141,2503 8303,2390 8324,2390C8353,2390 8352,2393 8244,2512C7921,2873 7891,2910 7918,2910C7928,2910 8079,2846 8212,2786C8243,2772 8316,2745 8374,2726C8471,2693 8510,2689 8510,2710C8510,2715 8439,2763 8353,2816C8266,2870 8193,2915 8191,2917C8168,2935 8410,2947 8470,2930C8494,2924 8578,2880 8655,2833C8732,2786 8937,2678 9110,2592L9424,2437L9457,2475C9475,2496 9487,2516 9485,2521C9482,2525 9426,2564 9360,2607C9294,2650 9240,2687 9240,2690C9240,2693 9301,2707 9375,2720C9458,2735 9510,2749 9510,2756C9510,2764 9470,2770 9383,2774C9197,2783 9107,2798 9006,2834C8816,2902 8736,2946 8768,2963C8772,2965 8847,2961 8935,2954C9023,2947 9196,2934 9320,2926C9444,2917 9566,2907 9591,2904C9635,2899 9637,2900 9650,2930C9657,2947 9661,2962 9659,2964C9655,2966 9496,3002 9340,3035C9232,3058 8958,3089 8750,3101C8623,3108 8420,3110 8165,3105C7639,3096 7676,3087 7255,3326C6934,3508 6929,3510 6878,3510C6853,3510 6782,3491 6710,3466C6535,3404 6494,3388 6335,3315C6164,3237 5971,3157 5890,3133C5779,3099 5606,3095 5550,3124C5491,3156 5477,3183 5438,3340C5383,3556 5360,3733 5360,3931C5360,4065 5337,4220 5290,4416C5236,4637 5086,5238 5065,5315C4996,5575 4927,5855 4908,5955C4889,6057 4886,6108 4886,6295L4886,6515L4953,6785C4991,6934 5052,7181 5090,7335C5129,7489 5173,7664 5190,7723C5288,8073 5442,8161 5820,8081C5925,8059 6262,8000 6285,8000C6294,8000 6300,8010 6300,8025C6300,8039 6296,8050 6291,8050C6286,8050 6210,8063 6122,8080C6033,8096 5952,8110 5941,8110C5899,8110 5912,8130 5977,8166C6014,8187 6039,8205 6033,8207C6027,8209 5931,8204 5819,8196C5611,8180 5601,8181 5600,8217C5600,8223 5677,8274 5770,8330C5864,8386 5940,8433 5940,8435C5940,8437 5935,8450 5929,8463L5918,8487L5862,8470C5830,8460 5722,8422 5621,8386C5520,8349 5435,8322 5432,8325C5417,8340 5545,8606 5626,8727C5749,8912 5856,8945 5967,8834C6012,8789 6067,8685 6106,8572C6132,8498 6154,8505 6158,8588C6160,8628 6165,8650 6173,8650C6180,8650 6225,8643 6274,8634C6347,8622 6372,8621 6413,8631C6464,8643 6530,8691 6530,8717C6530,8732 6521,8731 6340,8710C6304,8706 6273,8704 6271,8706C6269,8708 6288,8737 6315,8771C6342,8805 6359,8835 6354,8840C6349,8845 6305,8824 6255,8795C6206,8765 6162,8744 6158,8748C6126,8782 5991,8965 5997,8967C6001,8968 6082,8981 6175,8996C6269,9010 6377,9026 6415,9032C6506,9046 6565,9037 6631,8997C6685,8965 6738,8899 6820,8764C6900,8632 6955,8574 7078,8494C7363,8308 7399,8281 7486,8195C7537,8144 7590,8080 7609,8047C7640,7991 7643,7988 7673,7994C7691,7997 7756,8002 7818,8006C7879,8010 7930,8016 7930,8019C7930,8022 7836,8083 7722,8153C7334,8393 7171,8495 7165,8502C7161,8505 7161,8517 7164,8527C7169,8544 7193,8549 7358,8569C7590,8597 7601,8600 7535,8626C7472,8650 7332,8651 7245,8627C7212,8618 7162,8608 7134,8604C7076,8597 7096,8575 6935,8810C6886,8882 6821,8975 6792,9016C6763,9058 6741,9094 6744,9097C6747,9100 6841,9116 6952,9132C7425,9201 7546,9170 7776,8920C7919,8764 8024,8711 8238,8685C8484,8655 8607,8610 8715,8509C8751,8475 8794,8421 8814,8386C8847,8328 8851,8324 8879,8328C8899,8331 8907,8336 8903,8344C8890,8365 8797,8495 8742,8568C8712,8608 8690,8643 8693,8646C8707,8660 8858,8672 8970,8667C9171,8658 9321,8611 9470,8510C9532,8468 9650,8347 9698,8278C9779,8160 9887,7899 9925,7728L9942,7650L9966,7668C9982,7679 9989,7692 9986,7705C9984,7716 9934,7859 9875,8023C9815,8186 9770,8323 9774,8327C9784,8337 9900,8301 9963,8268C10042,8225 10129,8130 10179,8029C10202,7984 10220,7951 10220,7954C10220,7958 10210,7999 10199,8046C10177,8131 10177,8132 10197,8151C10217,8171 10218,8170 10576,7939C10773,7812 10942,7705 10950,7702C10969,7695 10845,7833 10738,7938C10568,8106 10467,8163 10162,8264C10051,8301 9960,8337 9960,8343C9961,8382 9974,8381 10198,8325C10319,8295 10425,8270 10432,8270C10452,8270 10350,8315 10264,8344C10221,8359 10080,8395 9949,8426C9680,8488 9590,8516 9473,8570C9383,8612 9260,8693 9216,8739L9187,8769L9211,8774C9224,8777 9296,8789 9370,8800C9554,8829 9613,8839 9617,8844C9620,8846 9599,8861 9571,8877C9543,8892 9520,8908 9520,8911C9520,8920 9772,9119 9851,9172C10010,9277 10147,9330 10315,9350C10370,9356 10417,9363 10418,9365C10420,9367 10410,9386 10396,9407C10382,9427 10370,9450 10370,9456C10370,9463 10391,9471 10417,9475C10443,9479 10477,9488 10492,9496C10507,9504 10544,9516 10574,9524C10684,9553 10738,9514 10820,9345C10880,9219 10962,9127 11084,9045C11167,8990 11322,8909 11329,8916C11332,8918 11311,8940 11284,8965C11227,9018 11222,9016 11404,8995C11475,8987 11535,8982 11538,8984C11542,8989 11528,8993 11403,9025C11160,9086 10997,9179 10922,9297C10876,9370 10828,9548 10856,9543C10877,9540 11174,9368 11223,9331C11285,9284 11384,9229 11460,9200C11548,9165 11634,9150 11805,9140C12032,9127 12130,9096 12256,8999C12286,8976 12329,8937 12352,8911C12426,8831 12646,8682 12675,8694C12717,8710 12685,8742 12393,8975C12137,9179 12095,9217 12097,9238C12098,9251 12101,9265 12104,9267C12108,9271 12796,9081 12909,9044C12934,9037 12955,9032 12958,9035C12960,9037 12948,9056 12931,9077C12914,9098 12904,9116 12909,9118C12914,9120 13104,9084 13331,9040C13860,8937 13994,8911 13997,8913C13998,8914 14000,8928 14002,8944L14005,8973L13905,8990C13850,9000 13695,9027 13560,9050C13425,9073 13311,9096 13307,9100C13303,9103 13302,9114 13306,9123C13311,9137 13329,9140 13419,9142C13500,9143 13479,9145 13330,9151C12877,9170 12596,9212 12323,9302C12272,9319 12230,9335 12230,9339C12231,9342 12252,9360 12278,9378C12438,9489 12700,9682 12700,9689C12700,9693 12694,9704 12687,9714C12675,9731 12665,9726 12557,9659C12493,9618 12400,9549 12351,9505C12244,9409 12175,9366 12070,9329C11954,9288 11853,9270 11738,9270C11638,9270 11451,9286 11442,9295C11432,9305 11678,9495 11880,9631C12111,9788 12200,9851 12200,9860C12200,9865 12191,9871 12181,9875C12161,9881 12143,9916 12154,9927C12160,9933 12290,9980 12443,10031C12498,10050 12540,10070 12540,10077C12540,10093 12539,10093 12393,10073C12293,10059 12268,10059 12256,10069C12232,10089 12236,10101 12293,10170C12322,10206 12448,10360 12574,10513C12699,10667 12800,10793 12798,10795C12796,10797 12730,10755 12651,10703C12504,10606 12399,10511 12368,10449C12359,10430 12319,10350 12280,10270C12175,10057 12078,9917 11940,9779C11792,9630 11691,9562 11471,9465C11319,9398 11279,9405 11165,9520C11098,9588 11097,9590 11111,9616C11138,9669 11212,9739 11264,9765C11330,9797 11410,9806 11491,9791C11524,9784 11554,9781 11557,9784C11560,9786 11530,9805 11491,9824C11390,9875 11334,9874 11253,9821C11221,9799 11155,9744 11106,9699L11018,9617L10783,9643C10654,9657 10546,9671 10543,9674C10540,9676 10576,9725 10622,9782C10668,9839 10764,9959 10835,10050C10987,10243 11586,10997 11608,11023C11639,11058 11607,11052 11502,11003C11451,10979 11452,10996 11505,11050C11596,11143 11702,11182 11906,11200C12048,11212 12091,11220 12085,11230C12082,11234 12063,11241 12043,11244C11982,11255 11938,11272 11947,11280C11951,11285 11982,11299 12015,11313C12181,11383 12230,11409 12223,11426C12215,11447 12221,11448 11925,11345C11788,11297 11666,11256 11655,11253C11632,11247 11650,11267 11821,11445C11879,11505 11978,11608 12041,11674C12104,11739 12155,11799 12155,11807C12155,11816 12148,11827 12139,11833C12125,11842 12091,11815 11948,11684C11853,11597 11720,11476 11654,11416L11533,11307L11400,11086C11327,10965 11213,10778 11148,10672C11083,10566 11030,10477 11030,10474C11030,10471 11021,10457 11011,10444C10993,10421 10991,10420 10982,10437C10962,10473 10947,10582 10953,10640C10960,10708 10988,10795 11032,10890C11074,10981 11110,11093 11110,11131C11110,11162 11105,11157 11057,11075C11028,11025 10982,10946 10955,10898C10917,10830 10901,10810 10885,10810C10846,10810 10844,10786 10928,11175C10950,11274 10966,11357 10963,11360C10961,11363 10938,11341 10913,11312C10889,11284 10864,11260 10859,11260C10854,11260 10850,11298 10850,11345C10850,11429 10850,11430 10825,11430C10807,11430 10799,11424 10796,11408C10767,11268 10747,11125 10743,11035C10738,10934 10740,10914 10770,10800C10788,10731 10807,10657 10812,10635C10827,10573 10815,10377 10790,10286C10767,10201 10710,10077 10658,10002C10589,9901 10410,9753 10051,9499C10031,9485 9945,9423 9860,9362C9775,9300 9702,9250 9699,9250C9687,9250 9679,9306 9673,9445C9669,9554 9671,9605 9685,9675C9728,9907 9847,10103 10060,10294C10101,10331 10102,10334 10085,10346C10075,10354 10063,10360 10058,10360C10043,10360 10050,10386 10081,10455C10097,10492 10109,10529 10106,10536C10098,10556 10073,10553 10065,10533C10062,10523 10037,10479 10011,10435C9985,10391 9935,10306 9900,10245C9865,10185 9810,10091 9778,10038C9746,9984 9720,9938 9720,9936C9720,9933 9707,9909 9690,9883C9674,9857 9660,9840 9660,9845C9660,9850 9680,9946 9705,10059C9730,10172 9768,10348 9791,10450C9813,10552 9837,10664 9845,10698C9852,10733 9860,10764 9863,10766C9865,10768 9943,10777 10036,10786C10233,10805 10236,10805 10221,10824C10214,10832 10173,10839 10102,10844C10043,10847 9887,10859 9755,10870C8805,10949 8896,10938 8892,10975C8889,11005 8890,11005 9191,11155C9357,11238 9506,11316 9522,11329C9538,11342 9570,11380 9592,11414C9713,11594 9779,11649 9885,11657C9930,11661 9964,11658 10001,11646C10029,11636 10054,11631 10056,11633C10058,11635 10044,11658 10024,11684L9988,11732L10016,11762C10088,11837 10216,11912 10340,11951C10408,11973 10432,11975 10600,11974C10765,11974 10808,11970 11004,11937C11124,11916 11225,11901 11227,11903C11229,11905 11173,11924 11103,11944C11032,11964 10968,11984 10960,11987C10943,11993 10944,11994 11105,12040C11166,12057 11222,12075 11230,12078C11238,12082 11063,12087 10840,12090L10435,12095L10645,12276C10838,12443 10982,12581 11058,12670C11094,12712 11203,12880 11199,12885C11197,12887 11157,12854 11110,12813C11063,12771 11011,12726 10995,12711C10794,12537 10730,12480 10631,12393C10567,12336 10512,12290 10509,12290C10505,12290 10490,12316 10474,12348L10446,12405L10434,12348C10402,12185 10305,12078 10089,11965C10016,11927 9940,11885 9922,11872C9885,11847 9869,11850 9886,11878C9892,11887 9954,12008 10025,12145C10095,12283 10177,12441 10206,12497C10236,12553 10260,12605 10260,12611C10260,12623 10231,12649 10218,12650C10214,12650 10166,12561 10111,12452C10010,12249 9910,12074 9831,11960C9748,11840 9700,11781 9595,11671C9312,11377 8825,11098 8265,10911C8081,10850 7816,10776 7800,10782C7790,10785 7989,11088 8038,11144C8096,11211 8104,11235 8101,11346C8099,11433 8103,11459 8125,11526C8165,11645 8298,11850 8393,11937C8482,12019 8502,12025 8697,12025C8873,12025 8897,12030 8884,12063C8879,12078 8859,12080 8734,12080C8655,12080 8590,12083 8590,12086C8590,12089 8636,12136 8692,12190C8807,12301 8882,12346 9080,12421L9195,12465L9128,12479C9090,12487 9060,12498 9060,12504C9061,12510 9093,12549 9132,12590C9219,12681 9264,12749 9283,12821C9300,12880 9314,13070 9302,13070C9285,13070 9250,12986 9235,12910C9205,12749 9085,12611 8933,12561C8844,12531 8793,12534 8751,12569L8717,12597L8750,12676C8767,12719 8804,12811 8832,12880C8860,12949 8893,13029 8906,13058C8932,13115 8930,13130 8899,13130C8885,13130 8874,13118 8864,13093C8762,12845 8499,12308 8460,12266C8455,12262 8440,12276 8425,12299C8359,12398 8294,12403 8155,12318C8068,12264 8006,12242 7995,12259C7993,12264 8010,12310 8034,12361C8149,12610 8220,12772 8220,12787C8220,12794 8210,12800 8198,12800C8179,12800 8165,12780 8115,12674C8082,12604 8050,12545 8043,12543C8037,12540 7997,12557 7955,12579C7913,12602 7875,12620 7869,12620C7864,12620 7871,12603 7884,12582C7914,12535 7940,12459 7940,12421C7940,12341 7860,12218 7779,12172C7733,12147 7724,12134 7627,11962C7535,11798 7523,11780 7501,11782C7482,11784 7474,11794 7464,11825C7437,11912 7408,12011 7376,12130C7343,12255 7343,12255 7311,12258C7294,12260 7280,12259 7280,12257C7280,12254 7293,12224 7310,12189C7395,12006 7394,11808 7309,11592C7185,11279 7057,11135 6819,11036C6730,10999 6570,10956 6483,10944L6430,10937L6430,10982C6430,11007 6435,11085 6441,11156C6446,11227 6452,11391 6454,11520L6457,11755L6507,11895C6556,12031 6585,12108 6629,12218C6759,12543 6813,12703 6829,12810C6840,12876 6860,13280 6854,13288C6853,13290 6819,13227 6780,13148C6740,13069 6687,12968 6663,12922C6614,12831 6613,12835 6703,12825C6751,12820 6760,12816 6756,12802C6701,12630 6632,12436 6624,12433C6619,12432 6607,12447 6597,12468C6587,12488 6554,12551 6524,12608C6479,12692 6465,12710 6446,12710C6413,12710 6408,12700 6429,12671C6498,12574 6540,12451 6540,12346C6540,12219 6498,12098 6347,11782L6303,11689L6258,11767C6073,12087 6050,12137 6043,12232C6036,12323 6060,12399 6131,12515C6186,12606 6219,12701 6246,12843L6264,12941L6190,13015L6190,12933C6190,12827 6169,12771 6078,12632C6039,12573 5997,12503 5984,12476C5958,12419 5961,12413 5934,12570C5910,12711 5863,12893 5823,13000C5780,13114 5710,13264 5703,13256C5700,13254 5712,13189 5729,13113C5745,13037 5775,12903 5794,12814C5837,12623 5837,12620 5808,12620C5790,12620 5776,12636 5745,12688C5724,12725 5698,12766 5689,12780C5680,12794 5635,12865 5590,12938C5510,13066 5507,13070 5486,13056C5475,13048 5466,13037 5468,13030C5469,13024 5509,12955 5557,12877C5645,12732 5766,12522 5850,12370C5875,12323 5922,12239 5954,12182C5986,12125 6010,12077 6008,12075C6006,12073 5883,12116 5735,12171C5486,12263 5464,12269 5453,12253C5446,12244 5440,12229 5440,12220C5440,12202 5499,12170 5533,12170C5582,12170 5729,12127 5797,12093C5836,12073 5891,12038 5918,12014C5978,11962 6048,11858 6079,11775C6129,11643 6145,11616 6225,11536C6329,11432 6346,11387 6344,11225C6343,11134 6338,11103 6318,11048C6282,10951 6235,10879 6149,10787L6074,10706L6031,10784C6008,10827 5987,10860 5986,10858C5984,10857 5986,10803 5991,10740C5995,10677 5999,10592 5999,10552C6000,10483 5999,10479 5979,10482C5962,10484 5950,10506 5921,10580C5825,10829 5711,11004 5356,11450C5095,11777 5038,11865 4992,12010C4950,12144 4955,12270 5010,12399L5041,12471L4949,12568C4898,12621 4853,12666 4850,12668C4846,12670 4849,12645 4856,12613C4864,12581 4881,12507 4895,12448C4909,12390 4923,12335 4926,12326C4935,12302 4919,12306 4867,12341C4724,12435 4688,12556 4725,12810C4760,13053 4811,13447 4823,13564C4824,13576 4818,13586 4809,13588C4796,13590 4790,13578 4781,13528ZM8790,12493C8790,12398 8783,12386 8689,12311C8640,12272 8596,12240 8591,12240C8567,12240 8563,12323 8584,12373C8600,12412 8666,12472 8730,12505C8755,12518 8778,12529 8783,12530C8787,12530 8790,12513 8790,12493ZM8317,12223C8362,12202 8399,12180 8400,12174C8400,12169 8376,12126 8347,12079C8266,11951 8088,11662 8049,11598C8030,11566 8012,11540 8009,11540C8005,11540 8000,11577 7996,11623C7983,11784 7979,11800 7958,11800C7940,11800 7939,11795 7945,11734C7986,11355 7874,11035 7605,10764C7448,10605 7314,10525 7070,10448C6894,10392 6616,10294 6146,10123C6001,10071 5950,10063 5950,10092C5950,10112 6160,10529 6221,10630C6327,10804 6367,10829 6630,10876C6749,10897 6856,10936 6951,10992C7057,11054 7208,11208 7290,11338C7492,11658 7552,11743 7692,11906C7836,12076 7925,12143 8106,12224C8149,12244 8196,12260 8210,12260C8224,12260 8272,12243 8317,12223ZM4595,11297C4582,11273 4560,11233 4547,11209C4461,11050 4448,11030 4428,11030C4409,11030 4408,11035 4411,11144C4415,11255 4416,11260 4445,11290C4478,11324 4514,11338 4577,11339L4620,11340L4595,11297ZM9070,10865C9174,10852 9634,10780 9706,10765C9727,10760 9728,10757 9723,10633C9717,10452 9703,10348 9673,10271C9582,10032 9551,9896 9543,9695C9539,9592 9542,9519 9555,9420C9565,9346 9572,9271 9572,9253C9570,9199 9543,9151 9473,9078C9315,8915 9131,8833 8865,8810C8718,8797 8330,8807 8330,8824C8330,8830 8362,8872 8400,8917C8469,8998 8484,9030 8456,9030C8448,9030 8384,8979 8314,8918C8245,8856 8185,8805 8182,8805C8180,8805 8173,8812 8167,8821C8159,8834 8168,8867 8205,8960C8246,9061 8252,9083 8239,9091C8232,9096 8220,9100 8213,9100C8206,9100 8173,9042 8139,8971L8078,8841L8036,8867C7908,8948 7724,9121 7608,9271C7574,9314 7544,9350 7540,9350C7536,9350 7525,9341 7516,9331C7485,9297 7402,9267 7355,9274C7314,9281 7221,9330 7165,9374L7138,9396L7170,9460C7253,9626 7390,9738 7621,9828C7751,9879 7918,9926 8323,10026C8497,10069 8640,10109 8640,10115C8639,10153 8625,10153 8454,10107C8263,10055 8161,10028 7922,9966C7830,9942 7693,9906 7617,9886C7541,9865 7472,9850 7463,9852C7451,9854 7455,9868 7483,9922C7528,10008 7541,10025 7650,10136C7789,10277 7945,10381 8039,10396C8096,10405 8287,10547 8282,10576C8280,10586 8276,10597 8274,10599C8269,10604 8085,10528 7964,10470C7839,10410 7739,10335 7581,10184C7395,10005 7316,9901 7214,9697C7050,9370 6821,9214 6420,9154C6300,9136 5840,9127 5824,9142C5811,9155 5859,9311 5904,9405C5960,9519 6026,9606 6130,9703C6278,9840 6463,9947 6870,10129C7203,10279 7363,10352 7470,10402C7775,10547 8076,10659 8540,10804C8804,10886 8851,10892 9070,10865ZM4340,9665C4347,9657 4396,9621 4449,9585C4572,9502 4585,9484 4584,9402L4583,9338L4639,9292C4670,9266 4729,9212 4771,9170C4834,9107 4856,9076 4907,8975C4980,8831 5005,8760 5026,8637C5055,8474 5033,8331 4955,8160C4913,8067 4867,7938 4818,7778C4805,7735 4792,7700 4789,7700C4785,7700 4747,7757 4703,7828C4659,7898 4583,8018 4535,8095C4366,8362 4278,8559 4218,8800C4197,8885 4195,8917 4196,9110C4196,9310 4198,9332 4223,9423C4252,9531 4308,9680 4320,9680C4324,9680 4333,9673 4340,9665Z" style="fill-rule:nonzero;"/>
                <path d="M11001,12480L10958,12440L11028,12363C11067,12320 11112,12272 11129,12255L11160,12226L11197,12262L11234,12299L11185,12362C11158,12397 11120,12446 11101,12472C11081,12498 11061,12519 11055,12519C11050,12519 11025,12501 11001,12480Z" style="fill-rule:nonzero;"/>
                <path d="M6926,12324C6893,12282 6889,12288 7018,12166L7060,12126L7090,12155C7107,12171 7119,12189 7118,12195C7116,12200 7079,12240 7035,12282L6954,12359L6926,12324Z" style="fill-rule:nonzero;"/>
                <path d="M10641,11866C10624,11841 10610,11815 10610,11808C10610,11797 10827,11660 10844,11660C10857,11660 10903,11741 10894,11749C10885,11758 10757,11850 10703,11888L10671,11910L10641,11866Z" style="fill-rule:nonzero;"/>
                <path d="M3695,11753C3675,11748 3636,11721 3590,11680C3576,11668 3555,11651 3542,11642C3522,11629 3519,11621 3525,11591C3529,11571 3533,11554 3535,11552C3536,11551 3593,11558 3661,11570C3729,11581 3800,11593 3819,11596L3852,11601L3846,11653C3838,11712 3827,11728 3783,11747C3750,11760 3731,11762 3695,11753Z" style="fill-rule:nonzero;"/>
                <path d="M8350,11734C8350,11728 8447,11551 8477,11502C8491,11479 8491,11479 8558,11544C8595,11579 8638,11618 8653,11630C8668,11642 8679,11654 8677,11657C8672,11661 8371,11740 8358,11740C8354,11740 8350,11737 8350,11734Z" style="fill-rule:nonzero;"/>
                <path d="M5960,11426C5960,11375 5959,11375 6100,11365C6147,11361 6193,11356 6203,11354C6218,11349 6220,11356 6220,11403C6220,11456 6219,11458 6189,11464C6172,11467 6113,11470 6059,11470L5960,11470L5960,11426Z" style="fill-rule:nonzero;"/>
                <path d="M3336,11262C3329,11251 3317,11160 3323,11160C3325,11160 3363,11151 3406,11140C3523,11111 3538,11112 3546,11155C3549,11175 3551,11193 3549,11195C3538,11205 3340,11268 3336,11262Z" style="fill-rule:nonzero;"/>
                <path d="M11740,11088L11716,11056L11785,10994C11884,10904 11893,10901 11924,10936C11938,10952 11949,10970 11949,10975C11949,10987 11797,11114 11778,11118C11770,11119 11753,11106 11740,11088Z" style="fill-rule:nonzero;"/>
                <path d="M12738,10406C12695,10377 12668,10323 12675,10282C12686,10221 12722,10142 12754,10107C12774,10086 12810,10064 12855,10047C12949,10012 13101,9967 13106,9973C13113,9979 13045,10211 13020,10267C12982,10354 12928,10393 12812,10419C12776,10427 12765,10425 12738,10406Z" style="fill-rule:nonzero;"/>
                <path d="M2728,10360C2668,10342 2602,10298 2583,10262C2558,10217 2516,10091 2523,10084C2532,10075 2686,10107 2719,10124C2751,10141 2787,10185 2814,10239C2835,10284 2835,10289 2805,10333C2778,10371 2773,10374 2728,10360Z" style="fill-rule:nonzero;"/>
                <path d="M12085,9674L12057,9637L12081,9619C12094,9609 12136,9579 12173,9554L12242,9507L12266,9536C12293,9570 12306,9603 12294,9607C12289,9609 12247,9633 12201,9660C12155,9688 12116,9710 12115,9710C12113,9710 12100,9694 12085,9674Z" style="fill-rule:nonzero;"/>
                <path d="M9944,9121C9913,9102 9900,9067 9900,9003C9900,8978 9911,8974 10097,8934C10244,8903 10246,8903 10259,8942C10270,8973 10269,8976 10203,9042C10166,9079 10121,9117 10104,9125C10059,9146 9982,9144 9944,9121Z" style="fill-rule:nonzero;"/>
                <path d="M12967,8889L12938,8858L13022,8779C13067,8736 13107,8701 13110,8701C13113,8701 13128,8717 13144,8737L13174,8772L13094,8846C13051,8886 13011,8919 13005,8919C13000,8919 12982,8906 12967,8889Z" style="fill-rule:nonzero;"/>
                <path d="M8864,8201C8783,8152 8778,8062 8852,7993C8864,7981 8916,7953 8965,7930C9015,7907 9058,7886 9063,7883C9071,7878 9066,7946 9049,8063C9038,8143 9020,8172 8964,8200C8914,8225 8903,8225 8864,8201Z" style="fill-rule:nonzero;"/>
                <path d="M11152,8033C11145,8008 11143,7984 11147,7980C11156,7972 11321,7930 11344,7930C11358,7930 11387,7996 11377,8006C11369,8015 11191,8080 11177,8080C11170,8080 11159,8059 11152,8033Z" style="fill-rule:nonzero;"/>
                <path d="M11817,7801C11710,7693 11709,7636 11814,7535C11867,7484 12038,7355 12133,7295L12161,7277L12155,7356C12139,7573 12129,7635 12101,7696C12063,7776 12008,7819 11904,7849C11874,7857 11869,7854 11817,7801Z" style="fill-rule:nonzero;"/>
                <path d="M10320,7723C10288,7701 10251,7660 10244,7637C10236,7611 10268,7511 10301,7464C10322,7433 10348,7412 10393,7391C10450,7363 10649,7290 10669,7290C10677,7290 10654,7407 10626,7505C10595,7612 10549,7666 10455,7711C10386,7744 10355,7747 10320,7723Z" style="fill-rule:nonzero;"/>
                <path d="M10247,7011C10238,6995 10230,6978 10230,6973C10230,6962 10392,6850 10408,6850C10419,6850 10460,6920 10460,6937C10460,6946 10289,7040 10274,7040C10268,7040 10257,7027 10247,7011Z" style="fill-rule:nonzero;"/>
                <path d="M12896,7003C12850,6990 12805,6904 12816,6851C12822,6822 12922,6612 12930,6611C12933,6610 12961,6660 12993,6720C13053,6837 13061,6874 13036,6933C13029,6951 13014,6973 13003,6983C12981,7002 12928,7012 12896,7003Z" style="fill-rule:nonzero;"/>
            </g>
        </g>
    </g>
</svg>
