<?xml version="1.0" standalone="no"?>
<!DOCTYPE svg PUBLIC "-//W3C//DTD SVG 20010904//EN"
 "http://www.w3.org/TR/2001/REC-SVG-20010904/DTD/svg10.dtd">
<svg version="1.0" xmlns="http://www.w3.org/2000/svg"
 width="1438.000000pt" height="1438.000000pt" viewBox="0 0 1438.000000 1438.000000"
 preserveAspectRatio="xMidYMid meet">
<metadata>
Created by potrace 1.16, written by Peter Selinger 2001-2019
</metadata>
<g transform="translate(0.000000,1438.000000) scale(0.100000,-0.100000)"
fill="#000000" stroke="none">
<path d="M4781 13528 c-6 -35 -15 -97 -21 -138 -5 -41 -19 -136 -30 -210 -11
-74 -25 -171 -31 -215 -14 -99 -24 -121 -34 -74 -4 19 -22 97 -41 174 -18 77
-36 160 -40 183 -4 23 -11 42 -16 42 -5 0 -36 -19 -69 -42 -49 -35 -57 -44
-40 -46 24 -4 24 -6 75 -232 19 -85 53 -233 75 -328 23 -95 41 -179 41 -187 0
-9 -9 -15 -23 -15 -19 0 -31 17 -72 101 -28 55 -53 103 -57 105 -11 7 1 -79
24 -171 28 -113 69 -185 152 -263 189 -179 207 -208 460 -743 31 -67 32 -76 7
-84 -14 -4 -57 20 -155 90 -75 52 -142 95 -150 95 -16 0 -32 -33 -17 -38 28
-9 304 -241 589 -496 131 -117 191 -194 236 -306 36 -88 133 -433 147 -522 18
-117 -1 -248 -56 -379 -15 -35 -81 -199 -147 -364 -124 -311 -201 -474 -292
-623 -29 -48 -65 -109 -81 -137 -33 -57 -25 -68 -84 115 -22 69 -52 157 -66
195 -65 173 -125 346 -144 415 -68 251 -67 495 4 683 31 82 31 87 3 87 -19 0
-32 -18 -73 -98 -38 -74 -55 -98 -72 -100 l-23 -3 0 445 c0 277 -4 446 -10
446 -5 0 -11 -15 -14 -32 -8 -50 -43 -254 -75 -438 l-29 -165 39 -107 c21 -60
57 -157 79 -218 22 -60 40 -112 40 -115 0 -3 -10 -5 -23 -5 -16 0 -35 16 -62
53 -78 104 -81 107 -99 94 -13 -11 -14 -16 -2 -42 18 -39 85 -189 129 -290 54
-124 107 -245 134 -304 13 -29 22 -56 19 -58 -8 -8 -79 52 -135 113 -182 199
-231 373 -252 899 -6 143 -12 262 -15 264 -2 2 -4 -197 -4 -442 0 -246 -4
-447 -8 -447 -19 0 -91 60 -111 94 -22 36 -23 40 -21 407 0 204 5 407 11 452
27 221 106 389 245 515 38 35 72 75 76 89 6 22 -48 306 -83 437 l-11 39 -27
-49 c-16 -27 -58 -105 -94 -174 -36 -69 -70 -124 -74 -124 -4 1 -27 40 -50 87
-71 143 -83 228 -83 587 0 166 4 377 10 468 11 187 40 731 40 756 0 9 -8 16
-20 16 -19 0 -20 -7 -20 -131 0 -121 -1 -131 -17 -124 -53 22 -54 21 -48 -31
10 -88 35 -350 35 -367 0 -10 -8 -17 -19 -17 -14 0 -27 16 -45 53 l-24 52 -1
-543 c-1 -514 -2 -542 -18 -531 -31 19 -82 94 -108 156 -14 34 -31 110 -40
174 -8 63 -24 182 -35 264 -30 216 -29 215 -51 215 -11 0 -22 -7 -25 -15 -3
-8 4 -84 16 -170 12 -86 20 -160 18 -165 -2 -6 -37 40 -78 101 l-75 111 -12
-63 c-18 -94 -17 -102 25 -166 121 -182 212 -324 236 -368 15 -27 61 -97 102
-155 84 -116 165 -272 190 -365 21 -83 29 -244 15 -335 -14 -90 -51 -220 -62
-220 -7 0 -312 269 -451 398 -27 25 -28 25 -48 7 -11 -10 -20 -21 -20 -24 0
-3 47 -44 104 -91 58 -47 105 -90 105 -96 1 -6 -19 -17 -44 -24 -26 -7 -45
-19 -45 -26 0 -27 41 -101 71 -130 38 -36 95 -38 152 -4 37 22 38 22 59 4 41
-37 106 -150 128 -224 30 -100 35 -195 20 -367 -19 -216 -41 -219 -144 -19
-65 127 -71 136 -74 105 -2 -19 1 -64 8 -101 10 -55 21 -80 61 -135 77 -106
81 -145 33 -283 -74 -214 -81 -498 -19 -780 19 -88 48 -286 43 -300 -4 -14
-107 56 -166 113 -84 82 -121 158 -146 302 -25 144 -80 223 -174 250 -138 40
-243 126 -275 225 -21 66 -22 198 -2 303 10 50 15 139 15 245 0 226 13 286 86
398 l19 29 -34 -25 c-79 -59 -71 -69 -71 81 0 74 -3 143 -6 154 -3 11 -27 34
-52 50 -72 46 -85 78 -92 219 -6 117 -37 245 -149 636 -4 14 -15 27 -25 28
-15 3 -17 -1 -12 -25 3 -15 19 -102 36 -193 16 -91 42 -225 56 -298 14 -74 24
-136 21 -138 -2 -3 -66 72 -142 166 -75 93 -143 170 -149 170 -20 0 -36 -21
-25 -34 32 -38 145 -195 199 -276 34 -52 71 -107 80 -121 35 -50 98 -185 123
-264 32 -97 47 -187 47 -280 0 -69 -16 -204 -25 -213 -2 -3 -23 12 -45 32 -22
20 -66 48 -98 62 -31 14 -68 35 -81 47 -57 53 -65 143 -26 295 25 99 55 252
55 285 0 32 -43 17 -52 -18 -18 -74 -71 -241 -79 -249 -5 -6 -35 46 -72 125
-66 137 -130 270 -301 623 -53 109 -96 202 -96 207 0 5 -7 9 -15 9 -19 0 -18
-5 41 -197 24 -78 44 -147 44 -153 0 -8 -10 -9 -30 -5 -40 9 -38 3 10 -29 83
-55 155 -147 199 -254 31 -74 69 -231 101 -417 45 -259 108 -363 281 -465 56
-33 115 -109 134 -172 9 -31 15 -91 15 -151 l0 -99 -32 6 c-18 3 -82 40 -144
82 -126 85 -186 108 -256 99 -27 -4 -48 -11 -48 -16 0 -5 46 -32 103 -60 154
-77 235 -128 299 -187 58 -54 121 -145 133 -193 6 -24 3 -27 -62 -51 l-68 -25
135 -6 c234 -10 338 -51 393 -157 28 -52 29 -60 25 -156 -3 -55 -8 -106 -13
-114 -6 -10 -29 -11 -97 -7 -70 5 -103 12 -151 35 -69 32 -200 124 -351 244
-54 44 -100 77 -103 74 -9 -9 76 -137 136 -205 31 -36 104 -105 164 -154 59
-49 107 -93 107 -97 0 -20 -21 -18 -84 7 -36 14 -68 24 -72 21 -10 -10 38 -99
62 -115 24 -15 51 -13 204 18 211 43 463 -67 587 -255 77 -116 93 -201 100
-541 7 -376 -7 -462 -151 -895 -30 -91 -67 -210 -82 -265 -15 -55 -42 -145
-60 -201 -204 -617 -174 -1232 100 -2079 42 -129 59 -334 52 -610 -5 -160 -3
-268 6 -350 19 -176 17 -234 -10 -277 -41 -66 -126 -109 -337 -167 -210 -58
-254 -62 -625 -55 -380 7 -497 -1 -611 -42 -72 -26 -110 -45 -383 -189 -71
-38 -154 -74 -185 -82 -34 -8 -121 -13 -226 -13 -478 -1 -802 -37 -1050 -117
-128 -41 -354 -153 -334 -165 2 -2 16 -13 30 -26 l26 -22 174 44 c204 53 480
107 699 136 298 41 507 53 463 27 -4 -2 -123 -41 -263 -87 -379 -121 -410
-131 -410 -135 0 -1 7 -19 15 -39 13 -30 19 -35 38 -31 12 3 80 19 150 35 71
17 130 30 133 30 3 0 -23 -36 -56 -81 -100 -130 -57 -141 78 -19 116 105 232
160 422 203 64 15 105 32 355 152 202 97 334 153 388 166 69 15 471 9 488 -8
12 -12 7 -15 -169 -146 -46 -34 -100 -74 -120 -90 -25 -18 -96 -44 -222 -81
-288 -85 -455 -143 -579 -202 -62 -30 -116 -54 -120 -54 -3 0 -17 -9 -30 -19
l-24 -19 29 -6 c22 -5 76 9 209 54 324 111 507 162 522 146 4 -4 -23 -37 -60
-74 -37 -37 -67 -73 -67 -80 0 -21 48 -45 78 -39 15 3 66 31 111 62 123 83
115 87 106 -48 -7 -113 -6 -117 13 -117 27 0 50 42 94 170 74 214 116 260 378
416 l115 68 180 8 c207 8 279 19 389 59 129 47 209 34 237 -39 15 -40 -12 -69
-116 -118 -168 -79 -302 -186 -378 -299 -250 -376 -221 -357 -582 -380 -257
-17 -354 -38 -501 -112 -120 -60 -261 -164 -270 -198 -3 -14 -4 -29 -1 -32 4
-3 47 22 97 57 233 159 435 220 729 220 125 0 239 16 305 41 104 41 178 116
305 306 93 141 149 189 313 270 102 50 191 114 237 170 43 52 42 97 -4 157
-40 53 -35 55 55 31 30 -8 69 -15 85 -15 35 0 93 -33 102 -58 4 -9 42 -79 85
-156 158 -278 156 -349 -9 -513 -90 -89 -86 -88 -233 -98 -215 -15 -420 -63
-800 -187 -151 -49 -290 -94 -307 -99 -18 -6 -33 -11 -33 -13 0 -2 7 -20 15
-40 10 -23 22 -36 34 -36 10 0 106 20 212 45 419 96 769 175 779 175 27 0 0
-32 -91 -110 -221 -189 -368 -377 -424 -544 -29 -85 -31 -132 -11 -181 14 -32
19 -35 54 -35 22 0 44 6 49 13 6 6 20 46 33 87 37 126 81 197 187 307 80 82
144 136 268 225 121 87 214 143 222 134 4 -4 -14 -68 -41 -144 -77 -220 -98
-293 -103 -364 -6 -66 -1 -76 24 -60 29 19 285 589 307 684 5 24 25 37 132 89
l126 61 37 -35 c173 -167 229 -217 254 -223 16 -3 33 -2 38 3 8 8 -101 159
-188 258 -57 65 -87 144 -79 206 11 85 35 149 55 149 26 0 233 -72 347 -121
93 -40 162 -49 171 -23 2 6 -118 70 -267 142 -176 87 -275 141 -285 156 -21
32 -125 311 -125 336 0 11 6 20 13 20 30 0 133 -42 181 -73 141 -93 229 -129
371 -152 53 -8 110 -22 125 -30 16 -8 93 -79 171 -158 208 -210 236 -282 191
-503 -11 -54 -23 -118 -27 -142 -7 -43 -7 -43 21 -40 25 3 30 11 66 118 60
178 61 180 56 265 -6 117 -46 188 -232 409 -21 26 -37 49 -34 51 3 3 58 8 124
11 144 8 236 -5 341 -47 43 -17 177 -65 298 -106 279 -95 308 -112 385 -223
50 -73 74 -94 142 -125 49 -22 60 -24 78 -13 11 7 24 24 27 37 5 20 -1 31 -29
55 -21 18 -43 52 -54 81 -25 69 -136 178 -229 227 -38 20 -133 57 -210 83 -77
26 -142 49 -145 52 -11 12 310 -6 375 -21 250 -57 445 -206 807 -618 159 -180
203 -222 302 -287 96 -62 190 -99 288 -114 85 -12 97 -7 98 38 0 16 -14 25
-65 43 -197 69 -300 162 -465 422 -40 63 -83 128 -97 144 -13 16 -22 30 -20
32 2 3 55 -22 118 -54 117 -60 224 -94 409 -132 67 -14 131 -34 177 -58 57
-28 76 -33 85 -24 9 9 4 20 -22 47 -28 29 -54 42 -135 66 -209 62 -397 147
-590 267 -66 41 -158 95 -205 120 -47 25 -124 76 -171 112 -216 166 -423 250
-694 280 -60 7 -286 15 -501 19 l-392 6 442 222 c242 123 457 225 477 229 48
8 134 -22 294 -104 271 -138 298 -149 463 -193 63 -16 133 -39 155 -51 23 -11
91 -71 152 -132 60 -61 137 -135 170 -165 76 -68 238 -181 259 -181 29 0 28 3
-80 122 -323 361 -353 398 -326 398 10 0 161 -64 294 -124 31 -14 104 -41 162
-60 97 -33 136 -37 136 -16 0 5 -71 53 -157 106 -87 54 -160 99 -162 101 -23
18 219 30 279 13 24 -6 108 -50 185 -97 77 -47 282 -155 455 -241 l314 -155
33 38 c18 21 30 41 28 46 -3 4 -59 43 -125 86 -66 43 -120 80 -120 83 0 3 61
17 135 30 83 15 135 29 135 36 0 8 -40 14 -127 18 -186 9 -276 24 -377 60
-190 68 -270 112 -238 129 4 2 79 -2 167 -9 88 -7 261 -20 385 -28 124 -9 246
-19 271 -22 44 -5 46 -4 59 26 7 17 11 32 9 34 -4 2 -163 38 -319 71 -108 23
-382 54 -590 66 -127 7 -330 9 -585 4 -526 -9 -489 -18 -910 221 -321 182
-326 184 -377 184 -25 0 -96 -19 -168 -44 -175 -62 -216 -78 -375 -151 -171
-78 -364 -158 -445 -182 -111 -34 -284 -38 -340 -9 -59 32 -73 59 -112 216
-55 216 -78 393 -78 591 0 134 -23 289 -70 485 -54 221 -204 822 -225 899 -69
260 -138 540 -157 640 -19 102 -22 153 -22 340 l0 220 67 270 c38 149 99 396
137 550 39 154 83 329 100 388 98 350 252 438 630 358 105 -22 442 -81 465
-81 9 0 15 10 15 25 0 14 -4 25 -9 25 -5 0 -81 13 -169 30 -89 16 -170 30
-181 30 -42 0 -29 20 36 56 37 21 62 39 56 41 -6 2 -102 -3 -214 -11 -208 -16
-218 -15 -219 21 0 6 77 57 170 113 94 56 170 103 170 105 0 2 -5 15 -11 28
l-11 24 -56 -17 c-32 -10 -140 -48 -241 -84 -101 -37 -186 -64 -189 -61 -15
15 113 281 194 402 123 185 230 218 341 107 45 -45 100 -149 139 -262 26 -74
48 -67 52 16 2 40 7 62 15 62 7 0 52 -7 101 -16 73 -12 98 -13 139 -3 51 12
117 60 117 86 0 15 -9 14 -190 -7 -36 -4 -67 -6 -69 -4 -2 2 17 31 44 65 27
34 44 64 39 69 -5 5 -49 -16 -99 -45 -49 -30 -93 -51 -97 -47 -32 34 -167 217
-161 219 4 1 85 14 178 29 94 14 202 30 240 36 91 14 150 5 216 -35 54 -32
107 -98 189 -233 80 -132 135 -190 258 -270 285 -186 321 -213 408 -299 51
-51 104 -115 123 -148 31 -56 34 -59 64 -53 18 3 83 8 145 12 61 4 112 10 112
13 0 3 -94 64 -208 134 -388 240 -551 342 -557 349 -4 3 -4 15 -1 25 5 17 29
22 194 42 232 28 243 31 177 57 -63 24 -203 25 -290 1 -33 -9 -83 -19 -111
-23 -58 -7 -38 -29 -199 206 -49 72 -114 165 -143 206 -29 42 -51 78 -48 81 3
3 97 19 208 35 473 69 594 38 824 -212 143 -156 248 -209 462 -235 246 -30
369 -75 477 -176 36 -34 79 -88 99 -123 33 -58 37 -62 65 -58 20 3 28 8 24 16
-13 21 -106 151 -161 224 -30 40 -52 75 -49 78 14 14 165 26 277 21 201 -9
351 -56 500 -157 62 -42 180 -163 228 -232 81 -118 189 -379 227 -550 l17 -78
24 18 c16 11 23 24 20 37 -2 11 -52 154 -111 318 -60 163 -105 300 -101 304
10 10 126 -26 189 -59 79 -43 166 -138 216 -239 23 -45 41 -78 41 -75 0 4 -10
45 -21 92 -22 85 -22 86 -2 105 20 20 21 19 379 -212 197 -127 366 -234 374
-237 19 -7 -105 131 -212 236 -170 168 -271 225 -576 326 -111 37 -202 73
-202 79 1 39 14 38 238 -18 121 -30 227 -55 234 -55 20 0 -82 45 -168 74 -43
15 -184 51 -315 82 -269 62 -359 90 -476 144 -90 42 -213 123 -257 169 l-29
30 24 5 c13 3 85 15 159 26 184 29 243 39 247 44 3 2 -18 17 -46 33 -28 15
-51 31 -51 34 0 9 252 208 331 261 159 105 296 158 464 178 55 6 102 13 103
15 2 2 -8 21 -22 42 -14 20 -26 43 -26 49 0 7 21 15 47 19 26 4 60 13 75 21
15 8 52 20 82 28 110 29 164 -10 246 -179 60 -126 142 -218 264 -300 83 -55
238 -136 245 -129 3 2 -18 24 -45 49 -57 53 -62 51 120 30 71 -8 131 -13 134
-11 4 5 -10 9 -135 41 -243 61 -406 154 -481 272 -46 73 -94 251 -66 246 21
-3 318 -175 367 -212 62 -47 161 -102 237 -131 88 -35 174 -50 345 -60 227
-13 325 -44 451 -141 30 -23 73 -62 96 -88 74 -80 294 -229 323 -217 42 16 10
48 -282 281 -256 204 -298 242 -296 263 1 13 4 27 7 29 4 4 692 -186 805 -223
25 -7 46 -12 49 -9 2 2 -10 21 -27 42 -17 21 -27 39 -22 41 5 2 195 -34 422
-78 529 -103 663 -129 666 -127 1 1 3 15 5 31 l3 29 -100 17 c-55 10 -210 37
-345 60 -135 23 -249 46 -253 50 -4 3 -5 14 -1 23 5 14 23 17 113 19 81 1 60
3 -89 9 -453 19 -734 61 -1007 151 -51 17 -93 33 -93 37 1 3 22 21 48 39 160
111 422 304 422 311 0 4 -6 15 -13 25 -12 17 -22 12 -130 -55 -64 -41 -157
-110 -206 -154 -107 -96 -176 -139 -281 -176 -116 -41 -217 -59 -332 -59 -100
0 -287 16 -296 25 -10 10 236 200 438 336 231 157 320 220 320 229 0 5 -9 11
-19 15 -20 6 -38 41 -27 52 6 6 136 53 289 104 55 19 97 39 97 46 0 16 -1 16
-147 -4 -100 -14 -125 -14 -137 -4 -24 20 -20 32 37 101 29 36 155 190 281
343 125 154 226 280 224 282 -2 2 -68 -40 -147 -92 -147 -97 -252 -192 -283
-254 -9 -19 -49 -99 -88 -179 -105 -213 -202 -353 -340 -491 -148 -149 -249
-217 -469 -314 -152 -67 -192 -60 -306 55 -67 68 -68 70 -54 96 27 53 101 123
153 149 66 32 146 41 227 26 33 -7 63 -10 66 -7 3 2 -27 21 -66 40 -101 51
-157 50 -238 -3 -32 -22 -98 -77 -147 -122 l-88 -82 -235 26 c-129 14 -237 28
-240 31 -3 2 33 51 79 108 46 57 142 177 213 268 152 193 751 947 773 973 31
35 -1 29 -106 -20 -51 -24 -50 -7 3 47 91 93 197 132 401 150 142 12 185 20
179 30 -3 4 -22 11 -42 14 -61 11 -105 28 -96 36 4 5 35 19 68 33 166 70 215
96 208 113 -8 21 -2 22 -298 -81 -137 -48 -259 -89 -270 -92 -23 -6 -5 14 166
192 58 60 157 163 220 229 63 65 114 125 114 133 0 9 -7 20 -16 26 -14 9 -48
-18 -191 -149 -95 -87 -228 -208 -294 -268 l-121 -109 -133 -221 c-73 -121
-187 -308 -252 -414 -65 -106 -118 -195 -118 -198 0 -3 -9 -17 -19 -30 -18
-23 -20 -24 -29 -7 -20 36 -35 145 -29 203 7 68 35 155 79 250 42 91 78 203
78 241 0 31 -5 26 -53 -56 -29 -50 -75 -129 -102 -177 -38 -68 -54 -88 -70
-88 -39 0 -41 -24 43 365 22 99 38 182 35 185 -2 3 -25 -19 -50 -48 -24 -28
-49 -52 -54 -52 -5 0 -9 38 -9 85 0 84 0 85 -25 85 -18 0 -26 -6 -29 -22 -29
-140 -49 -283 -53 -373 -5 -101 -3 -121 27 -235 18 -69 37 -143 42 -165 15
-62 3 -258 -22 -349 -23 -85 -80 -209 -132 -284 -69 -101 -248 -249 -607 -503
-20 -14 -106 -76 -191 -137 -85 -62 -158 -112 -161 -112 -12 0 -20 56 -26 195
-4 109 -2 160 12 230 43 232 162 428 375 619 41 37 42 40 25 52 -10 8 -22 14
-27 14 -15 0 -8 26 23 95 16 37 28 74 25 81 -8 20 -33 17 -41 -3 -3 -10 -28
-54 -54 -98 -26 -44 -76 -129 -111 -190 -35 -60 -90 -154 -122 -207 -32 -54
-58 -100 -58 -102 0 -3 -13 -27 -30 -53 -16 -26 -30 -43 -30 -38 0 5 20 101
45 214 25 113 63 289 86 391 22 102 46 214 54 248 7 35 15 66 18 68 2 2 80 11
173 20 197 19 200 19 185 38 -7 8 -48 15 -119 20 -59 3 -215 15 -347 26 -950
79 -859 68 -863 105 -3 30 -2 30 299 180 166 83 315 161 331 174 16 13 48 51
70 85 121 180 187 235 293 243 45 4 79 1 116 -11 28 -10 53 -15 55 -13 2 2
-12 25 -32 51 l-36 48 28 30 c72 75 200 150 324 189 68 22 92 24 260 23 165 0
208 -4 404 -37 120 -21 221 -36 223 -34 2 2 -54 21 -124 41 -71 20 -135 40
-143 43 -17 6 -16 7 145 53 61 17 117 35 125 38 8 4 -167 9 -390 12 l-405 5
210 181 c193 167 337 305 413 394 36 42 145 210 141 215 -2 2 -42 -31 -89 -72
-47 -42 -99 -87 -115 -102 -201 -174 -265 -231 -364 -318 -64 -57 -119 -103
-122 -103 -4 0 -19 26 -35 58 l-28 57 -12 -57 c-32 -163 -129 -270 -345 -383
-73 -38 -149 -80 -167 -93 -37 -25 -53 -22 -36 6 6 9 68 130 139 267 70 138
152 296 181 352 30 56 54 108 54 114 0 12 -29 38 -42 39 -4 0 -52 -89 -107
-198 -101 -203 -201 -378 -280 -492 -83 -120 -131 -179 -236 -289 -283 -294
-770 -573 -1330 -760 -184 -61 -449 -135 -465 -129 -10 3 189 306 238 362 58
67 66 91 63 202 -2 87 2 113 24 180 40 119 173 324 268 411 89 82 109 88 304
88 176 0 200 5 187 38 -5 15 -25 17 -150 17 -79 0 -144 3 -144 6 0 3 46 50
102 104 115 111 190 156 388 231 l115 44 -67 14 c-38 8 -68 19 -68 25 1 6 33
45 72 86 87 91 132 159 151 231 17 59 31 249 19 249 -17 0 -52 -84 -67 -160
-30 -161 -150 -299 -302 -349 -89 -30 -140 -27 -182 8 l-34 28 33 79 c17 43
54 135 82 204 28 69 61 149 74 178 26 57 24 72 -7 72 -14 0 -25 -12 -35 -37
-102 -248 -365 -785 -404 -827 -5 -4 -20 10 -35 33 -66 99 -131 104 -270 19
-87 -54 -149 -76 -160 -59 -2 5 15 51 39 102 115 249 186 411 186 426 0 7 -10
13 -22 13 -19 0 -33 -20 -83 -126 -33 -70 -65 -129 -72 -131 -6 -3 -46 14 -88
36 -42 23 -80 41 -86 41 -5 0 2 -17 15 -38 30 -47 56 -123 56 -161 0 -80 -80
-203 -161 -249 -46 -25 -55 -38 -152 -210 -92 -164 -104 -182 -126 -180 -19 2
-27 12 -37 43 -27 87 -56 186 -88 305 -33 125 -33 125 -65 128 -17 2 -31 1
-31 -1 0 -3 13 -33 30 -68 85 -183 84 -381 -1 -597 -124 -313 -252 -457 -490
-556 -89 -37 -249 -80 -336 -92 l-53 -7 0 45 c0 25 5 103 11 174 5 71 11 235
13 364 l3 235 50 140 c49 136 78 213 122 323 130 325 184 485 200 592 11 66
31 470 25 478 -1 2 -35 -61 -74 -140 -40 -79 -93 -180 -117 -226 -49 -91 -50
-87 40 -97 48 -5 57 -9 53 -23 -55 -172 -124 -366 -132 -369 -5 -1 -17 14 -27
35 -10 20 -43 83 -73 140 -45 84 -59 102 -78 102 -33 0 -38 -10 -17 -39 69
-97 111 -220 111 -325 0 -127 -42 -248 -193 -564 l-44 -93 -45 78 c-185 320
-208 370 -215 465 -7 91 17 167 88 283 55 91 88 186 115 328 l18 98 -37 37
-37 37 0 -82 c0 -106 -21 -162 -112 -301 -39 -59 -81 -129 -94 -156 -26 -57
-23 -63 -50 94 -24 141 -71 323 -111 430 -43 114 -113 264 -120 256 -3 -2 9
-67 26 -143 16 -76 46 -210 65 -299 43 -191 43 -194 14 -194 -18 0 -32 16 -63
68 -21 37 -47 78 -56 92 -9 14 -54 85 -99 158 -80 128 -83 132 -104 118 -11
-8 -20 -19 -18 -26 1 -6 41 -75 89 -153 88 -145 209 -355 293 -507 25 -47 72
-131 104 -188 32 -57 56 -105 54 -107 -2 -2 -125 41 -273 96 -249 92 -271 98
-282 82 -7 -9 -13 -24 -13 -33 0 -18 59 -50 93 -50 49 0 196 -43 264 -77 39
-20 94 -55 121 -79 60 -52 130 -156 161 -239 50 -132 66 -159 146 -239 104
-104 121 -149 119 -311 -1 -91 -6 -122 -26 -177 -36 -97 -83 -169 -169 -261
l-75 -81 -43 78 c-23 43 -44 76 -45 74 -2 -1 0 -55 5 -118 4 -63 8 -148 8
-188 1 -69 0 -73 -20 -70 -17 2 -29 24 -58 98 -96 249 -210 424 -565 870 -261
327 -318 415 -364 560 -42 134 -37 260 18 389 l31 72 -92 97 c-51 53 -96 98
-99 100 -4 2 -1 -23 6 -55 8 -32 25 -106 39 -165 14 -58 28 -113 31 -122 9
-24 -7 -20 -59 15 -143 94 -179 215 -142 469 35 243 86 637 98 754 1 12 -5 22
-14 24 -13 2 -19 -10 -28 -60z m4009 -1035 c0 -95 -7 -107 -101 -182 -49 -39
-93 -71 -98 -71 -24 0 -28 83 -7 133 16 39 82 99 146 132 25 13 48 24 53 25 4
0 7 -17 7 -37z m-473 -270 c45 -21 82 -43 83 -49 0 -5 -24 -48 -53 -95 -81
-128 -259 -417 -298 -481 -19 -32 -37 -58 -40 -58 -4 0 -9 37 -13 83 -13 161
-17 177 -38 177 -18 0 -19 -5 -13 -66 41 -379 -71 -699 -340 -970 -157 -159
-291 -239 -535 -316 -176 -56 -454 -154 -924 -325 -145 -52 -196 -60 -196 -31
0 20 210 437 271 538 106 174 146 199 409 246 119 21 226 60 321 116 106 62
257 216 339 346 202 320 262 405 402 568 144 170 233 237 414 318 43 20 90 36
104 36 14 0 62 -17 107 -37z m-3722 -926 c-13 -24 -35 -64 -48 -88 -86 -159
-99 -179 -119 -179 -19 0 -20 5 -17 114 4 111 5 116 34 146 33 34 69 48 132
49 l43 1 -25 -43z m4475 -432 c104 -13 564 -85 636 -100 21 -5 22 -8 17 -132
-6 -181 -20 -285 -50 -362 -91 -239 -122 -375 -130 -576 -4 -103 -1 -176 12
-275 10 -74 17 -149 17 -167 -2 -54 -29 -102 -99 -175 -158 -163 -342 -245
-608 -268 -147 -13 -535 -3 -535 14 0 6 32 48 70 93 69 81 84 113 56 113 -8 0
-72 -51 -142 -112 -69 -62 -129 -113 -132 -113 -2 0 -9 7 -15 16 -8 13 1 46
38 139 41 101 47 123 34 131 -7 5 -19 9 -26 9 -7 0 -40 -58 -74 -129 l-61
-130 -42 26 c-128 81 -312 254 -428 404 -34 43 -64 79 -68 79 -4 0 -15 -9 -24
-19 -31 -34 -114 -64 -161 -57 -41 7 -134 56 -190 100 l-27 22 32 64 c83 166
220 278 451 368 130 51 297 98 702 198 174 43 317 83 317 89 -1 38 -15 38
-186 -8 -191 -52 -293 -79 -532 -141 -92 -24 -229 -60 -305 -80 -76 -21 -145
-36 -154 -34 -12 2 -8 16 20 70 45 86 58 103 167 214 139 141 295 245 389 260
57 9 248 151 243 180 -2 10 -6 21 -8 23 -5 5 -189 -71 -310 -129 -125 -60
-225 -135 -383 -286 -186 -179 -265 -283 -367 -487 -164 -327 -393 -483 -794
-543 -120 -18 -580 -27 -596 -12 -13 13 35 169 80 263 56 114 122 201 226 298
148 137 333 244 740 426 333 150 493 223 600 273 305 145 606 257 1070 402
264 82 311 88 530 61z m-4730 -1200 c7 -8 56 -44 109 -80 123 -83 136 -101
135 -183 l-1 -64 56 -46 c31 -26 90 -80 132 -122 63 -63 85 -94 136 -195 73
-144 98 -215 119 -338 29 -163 7 -306 -71 -477 -42 -93 -88 -222 -137 -382
-13 -43 -26 -78 -29 -78 -4 0 -42 57 -86 128 -44 70 -120 190 -168 267 -169
267 -257 464 -317 705 -21 85 -23 117 -22 310 0 200 2 222 27 313 29 108 85
257 97 257 4 0 13 -7 20 -15z"/>
<path d="M11001 12480 l-43 -40 70 -77 c39 -43 84 -91 101 -108 l31 -29 37 36
37 37 -49 63 c-27 35 -65 84 -84 110 -20 26 -40 47 -46 47 -5 0 -30 -18 -54
-39z"/>
<path d="M6926 12324 c-33 -42 -37 -36 92 -158 l42 -40 30 29 c17 16 29 34 28
40 -2 5 -39 45 -83 87 l-81 77 -28 -35z"/>
<path d="M10641 11866 c-17 -25 -31 -51 -31 -58 0 -11 217 -148 234 -148 13 0
59 81 50 89 -9 9 -137 101 -191 139 l-32 22 -30 -44z"/>
<path d="M3695 11753 c-20 -5 -59 -32 -105 -73 -14 -12 -35 -29 -48 -38 -20
-13 -23 -21 -17 -51 4 -20 8 -37 10 -39 1 -1 58 6 126 18 68 11 139 23 158 26
l33 5 -6 52 c-8 59 -19 75 -63 94 -33 13 -52 15 -88 6z"/>
<path d="M8350 11734 c0 -6 97 -183 127 -232 14 -23 14 -23 81 42 37 35 80 74
95 86 15 12 26 24 24 27 -5 4 -306 83 -319 83 -4 0 -8 -3 -8 -6z"/>
<path d="M5960 11426 c0 -51 -1 -51 140 -61 47 -4 93 -9 103 -11 15 -5 17 2
17 49 0 53 -1 55 -31 61 -17 3 -76 6 -130 6 l-99 0 0 -44z"/>
<path d="M3336 11262 c-7 -11 -19 -102 -13 -102 2 0 40 -9 83 -20 117 -29 132
-28 140 15 3 20 5 38 3 40 -11 10 -209 73 -213 67z"/>
<path d="M11740 11088 l-24 -32 69 -62 c99 -90 108 -93 139 -58 14 16 25 34
25 39 0 12 -152 139 -171 143 -8 1 -25 -12 -38 -30z"/>
<path d="M12738 10406 c-43 -29 -70 -83 -63 -124 11 -61 47 -140 79 -175 20
-21 56 -43 101 -60 94 -35 246 -80 251 -74 7 6 -61 238 -86 294 -38 87 -92
126 -208 152 -36 8 -47 6 -74 -13z"/>
<path d="M2728 10360 c-60 -18 -126 -62 -145 -98 -25 -45 -67 -171 -60 -178 9
-9 163 23 196 40 32 17 68 61 95 115 21 45 21 50 -9 94 -27 38 -32 41 -77 27z"/>
<path d="M12085 9674 l-28 -37 24 -18 c13 -10 55 -40 92 -65 l69 -47 24 29
c27 34 40 67 28 71 -5 2 -47 26 -93 53 -46 28 -85 50 -86 50 -2 0 -15 -16 -30
-36z"/>
<path d="M9944 9121 c-31 -19 -44 -54 -44 -118 0 -25 11 -29 197 -69 147 -31
149 -31 162 8 11 31 10 34 -56 100 -37 37 -82 75 -99 83 -45 21 -122 19 -160
-4z"/>
<path d="M12967 8889 l-29 -31 84 -79 c45 -43 85 -78 88 -78 3 0 18 16 34 36
l30 35 -80 74 c-43 40 -83 73 -89 73 -5 0 -23 -13 -38 -30z"/>
<path d="M8864 8201 c-81 -49 -86 -139 -12 -208 12 -12 64 -40 113 -63 50 -23
93 -44 98 -47 8 -5 3 63 -14 180 -11 80 -29 109 -85 137 -50 25 -61 25 -100 1z"/>
<path d="M11152 8033 c-7 -25 -9 -49 -5 -53 9 -8 174 -50 197 -50 14 0 43 66
33 76 -8 9 -186 74 -200 74 -7 0 -18 -21 -25 -47z"/>
<path d="M11817 7801 c-107 -108 -108 -165 -3 -266 53 -51 224 -180 319 -240
l28 -18 -6 79 c-16 217 -26 279 -54 340 -38 80 -93 123 -197 153 -30 8 -35 5
-87 -48z"/>
<path d="M10320 7723 c-32 -22 -69 -63 -76 -86 -8 -26 24 -126 57 -173 21 -31
47 -52 92 -73 57 -28 256 -101 276 -101 8 0 -15 117 -43 215 -31 107 -77 161
-171 206 -69 33 -100 36 -135 12z"/>
<path d="M10247 7011 c-9 -16 -17 -33 -17 -38 0 -11 162 -123 178 -123 11 0
52 70 52 87 0 9 -171 103 -186 103 -6 0 -17 -13 -27 -29z"/>
<path d="M12896 7003 c-46 -13 -91 -99 -80 -152 6 -29 106 -239 114 -240 3 -1
31 49 63 109 60 117 68 154 43 213 -7 18 -22 40 -33 50 -22 19 -75 29 -107 20z"/>
<path d="M12302 5735 c-225 -49 -420 -237 -473 -455 -19 -77 -16 -249 4 -340
38 -167 160 -316 324 -399 205 -102 471 -87 662 37 113 75 190 169 241 298 27
67 32 95 37 199 6 146 -10 236 -63 345 -74 151 -244 278 -419 315 -86 18 -229
18 -313 0z m301 -64 c81 -28 139 -72 182 -136 77 -117 100 -229 93 -464 -6
-191 -27 -276 -92 -374 -42 -64 -83 -97 -164 -135 -51 -24 -68 -27 -162 -26
-126 0 -192 22 -265 86 -88 77 -135 182 -155 342 -14 105 -8 294 11 376 39
175 134 293 268 334 70 22 216 20 284 -3z"/>
<path d="M6190 5705 c0 -25 1 -25 90 -25 l90 0 0 -565 0 -564 -87 -3 c-86 -3
-88 -3 -88 -28 l0 -25 263 -3 c255 -2 262 -2 262 17 0 29 -30 41 -104 41 l-66
0 0 275 0 275 335 0 335 0 0 -275 0 -275 -85 0 -85 0 0 -30 0 -30 259 0 c156
0 262 4 266 10 3 5 -3 18 -15 30 -16 16 -33 20 -85 20 l-65 0 0 565 0 565 85
0 c84 0 85 0 85 25 l0 25 -265 0 -265 0 0 -25 c0 -25 1 -25 85 -25 l85 0 0
-260 0 -260 -335 0 -335 0 0 260 0 260 85 0 c84 0 85 0 85 25 l0 25 -265 0
-265 0 0 -25z"/>
<path d="M7750 5705 c0 -25 1 -25 85 -25 l85 0 0 -565 0 -565 -85 0 -85 0 0
-30 0 -30 499 0 498 0 7 181 c4 105 4 185 -2 191 -19 19 -38 -5 -56 -69 -35
-120 -89 -202 -153 -229 -24 -10 -85 -14 -233 -14 l-200 0 0 275 0 275 225 0
225 0 0 30 0 30 -225 0 -225 0 0 260 0 260 183 0 c100 0 199 -5 220 -11 81
-22 145 -106 183 -241 17 -60 22 -68 43 -68 l24 0 -6 128 c-4 70 -7 153 -7
185 l0 57 -500 0 -500 0 0 -25z"/>
<path d="M8910 5705 c0 -25 1 -25 90 -25 l90 0 0 -565 0 -564 -87 -3 c-88 -3
-88 -3 -91 -30 l-3 -28 226 0 226 0 -7 23 c-10 32 -8 32 -100 36 l-84 3 0 469
c0 258 3 469 6 469 3 0 13 -9 22 -20 10 -11 199 -237 421 -503 l404 -484 48
10 49 10 2 586 3 586 88 3 c85 3 87 3 87 27 l0 25 -225 0 -225 0 0 -25 c0 -25
0 -25 95 -25 l95 0 0 -460 c0 -253 -2 -460 -4 -460 -2 0 -98 111 -212 248
-115 136 -216 256 -226 267 -9 11 -83 99 -164 195 -81 96 -164 194 -184 218
l-38 42 -151 0 -151 0 0 -25z"/>
<path d="M10410 5705 c0 -25 1 -25 85 -25 l85 0 0 -565 0 -565 -85 0 -85 0 0
-30 0 -30 259 0 c156 0 262 4 266 10 3 5 -3 18 -15 30 -16 16 -33 20 -85 20
l-65 0 0 239 0 240 48 45 c26 25 52 46 58 46 6 0 71 -75 145 -167 73 -93 135
-170 138 -173 4 -3 57 -69 120 -147 l115 -143 148 0 c140 0 148 1 148 19 0 25
-12 32 -70 40 l-47 6 -277 343 c-153 189 -276 347 -274 352 7 21 436 394 473
411 22 10 54 19 72 19 29 0 53 21 53 44 0 3 -88 6 -195 6 l-195 0 0 -25 c0
-25 1 -25 80 -25 44 0 80 -3 79 -7 0 -7 -68 -68 -292 -262 -34 -29 -93 -81
-132 -115 -75 -67 -137 -121 -172 -150 l-23 -19 0 276 0 277 85 0 c84 0 85 0
85 25 l0 25 -265 0 -265 0 0 -25z"/>
</g>
</svg>
